<svg width="775" height="920" viewBox="0 0 775 920" fill="none" xmlns="http://www.w3.org/2000/svg">
<path d="M714.475 681.71C709.558 792.663 632.727 893.208 538.546 914.835C444.365 936.463 341.291 878.938 295.4 781.35C290.336 770.581 285.826 759.285 281.317 747.991C269.675 718.833 258.037 689.685 236.874 669.628C212.71 646.728 181.634 640.604 150.244 634.417C130.312 630.489 110.253 626.535 91.758 618.246C47.1728 598.263 12.5548 550.922 2.90454 496.738C-12.7337 408.932 36.8007 319.284 102.857 272.426C168.912 225.568 248.288 212.517 325.281 202.462C354.733 198.615 378.658 172.934 395.745 144.911C402.36 134.063 408.312 122.664 414.259 111.273C423.674 93.2399 433.078 75.2282 445.086 59.4567C495.93 -7.32554 590.612 -18.5948 655.373 29.4256C720.134 77.446 751.131 176.19 733.909 262.929C730.943 277.869 726.732 292.416 722.522 306.964L722.521 306.966C718.49 320.892 714.459 334.819 711.519 349.093C705.235 379.601 704.036 411.173 703.32 442.525C702.467 479.906 702.266 517.384 705.292 554.614C706.344 567.565 707.787 580.499 709.229 593.431C712.507 622.817 715.783 652.19 714.475 681.71Z" fill="#64FCD9"/>
<path d="M325.174 175.962C360.388 155.691 388.416 120.488 406.066 79.8181C408.38 74.4856 410.573 68.8197 410.492 62.8535C410.411 56.8872 407.411 50.5676 402.423 49.0523C395.275 46.8809 389.127 54.811 384.67 61.6317C354.048 108.486 309.478 145.27 259.185 153.292C239.869 156.372 220.258 155.215 200.785 154.052L170.37 152.235C145.873 150.772 121.035 149.337 97.0563 155.319C73.0773 161.3 49.647 175.684 36.477 199.629C32.285 207.251 29.1451 216.232 30.3049 225.166C31.4935 234.322 37.1178 242.092 43.8926 247.017C50.6675 251.943 58.5383 254.407 66.3385 256.469C72.0496 257.978 77.8826 259.315 83.7263 258.839C93.2801 258.061 101.95 252.564 110.386 247.216C110.948 246.859 111.509 246.504 112.069 246.15C126.813 236.843 142.091 228.578 158.026 222.436C181.263 213.48 205.697 209.098 230.07 204.726C262.906 198.836 295.632 192.966 325.174 175.962Z" fill="#64FCD9"/>
<path d="M142.045 715.974L142.066 715.975C143.501 716.041 144.935 716.107 146.366 716.194C168.994 717.555 191.388 723.974 211.948 734.993C219.788 739.194 227.728 744.452 232.13 753.053C237.578 763.695 244.118 773.588 251.568 782.458C254.459 785.898 257.589 789.264 261.447 791.022C265.306 792.779 270.071 792.619 273.202 789.472C277.005 785.649 277.252 778.862 276.08 773.192C274.159 763.901 269.369 755.805 264.627 747.984C249.069 722.321 232.688 696.662 211.037 677.819C189.385 658.975 161.443 647.566 134.941 654.075C125.79 656.323 116.721 660.904 110.654 669.143C104.587 677.381 102.19 689.781 106.559 699.351C110.026 706.944 117.053 711.616 124.248 713.721C130.046 715.417 136.052 715.696 142.044 715.974H142.045Z" fill="#64FCD9"/>
<path d="M754.121 329.982C748.072 327.342 741.221 330.53 736.101 335.097C725.988 344.117 720.005 358.228 717.283 372.662C714.561 387.097 714.781 402.028 715.014 416.8L717.013 543.723C717.159 552.996 717.515 562.99 722.444 570.304C723.986 572.592 726.097 574.601 728.592 574.896C731.617 575.253 734.414 573.044 736.599 570.597C748.543 557.216 750.111 536.138 751.541 516.926L751.593 516.228C753.694 488.026 757.331 459.978 762.477 432.306C763.924 424.524 765.514 416.692 768.541 409.544C778.031 387.135 775.761 358.688 762.886 338.668C760.558 335.047 757.771 331.574 754.121 329.982Z" fill="#64FCD9"/>
</svg>
