<svg width="885" height="1024" viewBox="0 0 885 1024" fill="none" xmlns="http://www.w3.org/2000/svg">
<rect width="885" height="1024" fill="white"/>
<path d="M753.415 734.958C748.498 845.91 671.667 946.456 577.486 968.083C483.305 989.711 380.231 932.186 334.34 834.598C329.276 823.829 324.766 812.533 320.256 801.239C308.615 772.081 296.977 742.933 275.814 722.876C251.65 699.976 220.574 693.851 189.184 687.665C169.252 683.737 149.193 679.783 130.698 671.494C86.1128 651.511 51.4947 604.17 41.8445 549.986C26.2062 462.18 75.7406 372.532 141.797 325.674C207.852 278.816 287.228 265.765 364.221 255.71C393.673 251.863 417.598 226.182 434.685 198.159C441.3 187.311 447.252 175.912 453.199 164.521C462.614 146.488 472.018 128.476 484.025 112.705C534.87 45.9224 629.552 34.6532 694.313 82.6735C759.074 130.694 790.071 229.438 772.849 316.177C769.883 331.117 765.672 345.664 761.462 360.212L761.461 360.214C757.43 374.14 753.399 388.067 750.459 402.341C744.175 432.849 742.975 464.421 742.26 495.773C741.407 533.154 741.206 570.632 744.231 607.862C745.284 620.812 746.727 633.747 748.169 646.679C751.447 676.065 754.723 705.438 753.415 734.958Z" fill="#64FCD9"/>
<path d="M364.113 229.209C399.328 208.939 427.356 173.736 445.006 133.066C447.32 127.733 449.513 122.068 449.432 116.101C449.351 110.135 446.351 103.815 441.363 102.3C434.214 100.129 428.067 108.059 423.609 114.88C392.988 161.734 348.418 198.517 298.125 206.539C278.809 209.62 259.198 208.463 239.725 207.3L209.31 205.483C184.813 204.02 159.975 202.585 135.996 208.566C112.017 214.548 88.5869 228.932 75.417 252.877C71.2249 260.499 68.085 269.48 69.2449 278.414C70.4335 287.569 76.0578 295.34 82.8326 300.265C89.6074 305.191 97.4782 307.655 105.278 309.717C110.989 311.226 116.823 312.563 122.666 312.087C132.22 311.309 140.89 305.812 149.326 300.464C149.888 300.107 150.449 299.752 151.009 299.398C165.753 290.091 181.031 281.826 196.966 275.684C220.203 266.728 244.637 262.346 269.01 257.974C301.846 252.084 334.572 246.214 364.113 229.209Z" fill="#64FCD9"/>
<path d="M180.985 769.221L181.006 769.223C182.441 769.289 183.875 769.355 185.306 769.442C207.934 770.803 230.328 777.222 250.888 788.241C258.728 792.442 266.668 797.7 271.07 806.301C276.518 816.943 283.058 826.836 290.508 835.705C293.399 839.146 296.528 842.512 300.387 844.27C304.246 846.027 309.011 845.867 312.142 842.72C315.945 838.897 316.192 832.11 315.02 826.44C313.099 817.149 308.308 809.053 303.567 801.232C288.008 775.569 271.628 749.91 249.977 731.067C228.325 712.223 200.383 700.814 173.881 707.323C164.73 709.57 155.661 714.152 149.594 722.391C143.527 730.629 141.13 743.029 145.499 752.599C148.965 760.192 155.993 764.864 163.188 766.969C168.986 768.665 174.991 768.944 180.984 769.221H180.985Z" fill="#64FCD9"/>
<path d="M793.061 383.229C787.011 380.59 780.161 383.778 775.041 388.345C764.928 397.365 758.945 411.475 756.223 425.91C753.501 440.345 753.721 455.276 753.953 470.048L755.953 596.971C756.099 606.244 756.455 616.237 761.384 623.552C762.926 625.84 765.037 627.849 767.532 628.144C770.557 628.501 773.354 626.292 775.539 623.845C787.483 610.464 789.051 589.386 790.481 570.174L790.533 569.476C792.633 541.274 796.271 513.226 801.417 485.554C802.864 477.772 804.454 469.94 807.481 462.792C816.971 440.383 814.701 411.936 801.826 391.916C799.497 388.295 796.711 384.822 793.061 383.229Z" fill="#64FCD9"/>
<path d="M576.378 555.029C582.761 557.063 588.478 563.213 589.105 570.839C590.316 567.806 592.975 565.613 595.848 565.28L591.677 570.409L596.955 570.531L589.692 575.224C594.195 584.859 593.466 596.744 590.579 607.176C588.813 613.561 586.258 619.957 586.756 626.636C587.246 633.206 592.288 639.918 597.8 638.573L598.076 638.499C604.7 636.563 611.954 637.684 617.907 641.564C626.46 647.139 631.649 657.493 637.527 666.59C642.717 674.621 648.858 682.089 656.535 686.741C664.212 691.394 673.626 692.93 681.624 689.067C685.592 687.15 689.145 683.978 693.355 682.968C697.566 681.958 701.88 684.667 703.427 689.284C704.111 691.326 702.64 698.894 698.892 707.733C699.502 707.531 700.14 707.4 700.807 707.35C720.504 705.87 740.382 700.916 757.332 689.215C762.72 685.495 767.753 681.137 772.75 676.743L775.662 674.175L777.424 672.605C788.389 662.776 799.213 651.821 803.721 636.872L803.957 636.067L804.456 634.301C805.421 630.956 806.643 627.499 809.434 626.46C813.297 625.022 816.814 629.348 819.161 633.177L836.079 660.774C836.514 661.483 836.958 662.216 837.124 663.064C837.857 666.814 833.019 668.709 829.902 667.377C824.232 664.956 819.682 657.741 813.734 658.979C809.553 659.849 807.055 664.533 804.988 668.946L804.466 670.072C791.947 697.192 770.88 718.889 746.148 730.134C739.773 733.033 733.185 735.253 726.609 737.47L713.322 741.948L715.663 742.431C735.488 746.453 756.638 748.909 774.642 738.743C786.628 731.976 795.862 720.326 804.572 708.55L807.733 704.253L809.036 702.458C814.382 695.037 819.462 687.094 821.022 677.69C821.621 674.079 825.56 672.356 828.624 673.335C831.688 674.313 834.02 677.117 836.19 679.804L852.636 700.172C853.932 701.776 855.296 703.547 855.485 705.732C855.675 707.917 853.982 710.39 852.16 709.777L834.326 703.784C832.653 703.222 830.8 702.672 829.225 703.534C828.018 704.194 827.239 705.547 826.548 706.882L807.376 744.345C801.977 754.895 791.971 761.011 782.14 765.586C758.565 776.555 732.983 781.709 707.591 780.605C704.833 780.485 702.072 780.292 699.346 779.795C689.103 777.927 679.852 771.901 670.895 765.805C672.466 772.451 671.067 778.057 661.739 778.483C653.477 778.86 633.241 739.5 626.947 737.459C592.596 726.314 586.956 704.312 575.92 689.284C575.92 689.284 553.618 692.619 538.894 689.067C504.379 680.741 481.183 655.129 472.821 653.498C464.459 651.868 458.945 658.069 456.362 654.308L456.362 651.582C456.762 650.832 460.758 646.512 472.157 649.318C488.075 653.237 513.521 668.029 532.953 670.792C553.352 673.692 570.633 669.853 570.538 669.209C570.343 667.894 575.471 662.31 571.374 659.49C567.278 656.67 507.802 629.05 494.875 606.032L494.72 605.745C492.497 601.477 490.809 590.869 495.281 595.725L496.533 593.156C501.349 598.411 517.16 610.422 533.585 622.263C550.95 634.782 575.471 642.799 575.92 642.448C585.914 634.627 577.05 628.965 575.396 627.303C571.524 623.412 566.384 621.291 563.048 616.784C555.046 605.975 560.761 586.639 551.614 577.122C550.23 575.682 548.551 574.549 547.549 572.735C545.831 569.626 546.675 565.3 548.756 562.504C550.837 559.707 553.88 558.146 556.891 556.929C563.142 554.404 569.995 552.995 576.378 555.029Z" fill="white"/>
<ellipse cx="581.74" cy="610.304" rx="2.35999" ry="2.73059" fill="#FFB61D"/>
<ellipse cx="567.351" cy="610.304" rx="1.75021" ry="2.73059" fill="#FFB61D"/>
<path d="M481.828 623.537C459.886 616.972 436.825 615.457 414.382 619.106C416.079 609.401 418.205 599.796 420.748 590.341C413.446 593.068 404.824 585.324 405.296 576.463C405.769 567.601 415.147 561.141 422.104 564.885C424.495 558.504 424.646 551.044 422.518 544.54C421.497 541.419 425.566 539.62 428.45 539.619L444.383 539.615C446.61 539.614 449.715 538.417 449.162 535.921C447.85 530.002 451.367 523.239 456.502 521.809C461.543 520.405 467.218 524.399 468.521 530.187L468.588 530.51C469.798 536.727 476.604 538.7 482.11 538.578L484.85 538.502C489.613 538.387 494.576 538.565 497.763 542.42C501.575 547.029 500.723 554.371 499.467 560.628L499.383 561.044C497.602 569.731 495.704 578.385 493.689 587.003C497.602 623.447 487.911 625.357 481.828 623.537Z" fill="white"/>
<path d="M298.819 593.109C296.493 575.592 296.496 557.665 298.829 540.149L298.946 539.302C299.525 535.327 300.541 531.13 303.412 528.941C305.561 527.301 308.275 527.178 310.864 527.177L330.682 527.24C331.584 527.243 332.572 527.282 333.251 527.97C333.929 528.658 333.911 530.239 333.041 530.517C330.965 531.182 329.772 533.952 330.024 536.428C330.276 538.903 331.667 541.046 333.301 542.671C337.196 546.545 343.251 547.922 347.563 544.691C351.875 541.461 352.889 533.138 348.803 529.536C358.06 529.318 367.322 529.352 376.578 529.637L380.049 529.755C381.17 529.797 382.411 529.901 383.195 530.831C383.783 531.528 383.976 532.543 384.109 533.506C385.134 540.92 384.013 548.709 380.968 555.339C380.483 556.395 379.359 557.559 378.594 556.755C375.342 553.339 369.872 553.804 366.544 557.121C363.217 560.439 361.93 565.948 362.518 570.985C363.084 575.832 366.138 581.01 370.36 580.765C373.686 580.573 377.384 577.208 379.897 579.735L375.663 601.623C374.911 605.511 373.561 610.123 370.193 610.957C350.754 615.768 330.371 615.404 311.069 609.902L310.133 609.628C307.79 608.918 305.457 608 303.629 606.19C300.448 603.039 299.455 597.898 298.819 593.109Z" fill="white"/>
<path d="M451.332 421.352L498.309 422.445L499.076 422.467C500.487 422.518 501.909 422.661 503.179 423.347C506.051 424.898 507.367 428.72 508.24 432.245C512.902 451.06 512.326 471.561 506.62 489.987L506.38 490.741C505.637 493.008 504.666 495.268 502.912 496.544C501.469 497.593 499.709 497.813 497.997 497.919L497.631 497.94C490.645 498.323 483.636 498.117 476.676 497.322C480.301 494.74 481.216 488.455 478.915 484.312C476.613 480.17 471.751 478.44 467.656 479.785C465.161 480.606 462.836 482.579 461.933 485.393C461.03 488.207 461.903 491.821 464.21 493.195C465.805 494.146 465.53 497.138 464.133 498.442C462.737 499.745 460.795 499.837 459.001 499.871L435.432 500.313C433.66 500.347 431.798 500.355 430.242 499.373C428.037 497.981 427.023 494.981 426.401 492.165C424.902 485.368 424.699 478.192 425.812 471.297C427.152 476.743 432.952 480.05 437.5 477.962C442.049 475.874 444.311 468.865 442.06 463.838C439.809 458.811 433.555 456.908 429.458 460.004L429.287 458.246C428.699 452.088 428.243 445.849 429.265 439.783C430.384 433.14 433.578 426.615 438.814 423.596C442.632 421.395 447.042 421.273 451.332 421.352Z" fill="white"/>
<path d="M308.855 482.495C302.24 482.525 295.623 482.211 289.033 481.552L288.393 481.484C286.032 481.211 283.557 480.665 282.011 478.634C279.924 475.893 280.433 471.76 281.06 468.145L281.123 467.785C283.924 451.92 285.025 435.654 284.393 419.478L284.275 416.69C284.1 411.675 284.376 405.987 287.977 403.408C289.073 402.623 290.344 402.259 291.612 401.963L292.034 401.867C315.087 396.671 339.09 397.198 361.956 403.401C364.967 404.218 365.804 408.937 364.806 412.324C363.808 415.711 361.663 418.557 360.861 422.013C360.059 425.469 361.529 430.147 364.62 430.259C371.053 430.492 376.506 438.054 375.642 445.434C374.777 452.813 367.883 458.41 361.573 456.945C360.092 456.601 359.568 459.134 359.731 460.871L361.532 480.135C361.826 483.279 357.969 484.272 355.244 484.027L339.346 482.595C336.848 482.37 333.499 482.868 333.114 485.733C332.156 492.865 325.836 498.433 319.639 497.606C313.443 496.779 308.385 489.692 308.855 482.495Z" fill="white"/>
<path fill-rule="evenodd" clip-rule="evenodd" d="M266.062 601.051C267.826 601.547 270.351 602.428 270.211 604.358C267.388 643.258 255.236 636.099 244.401 647.253C241.538 650.2 239.827 657.171 238.597 657.331C243.157 659.768 249.775 669.544 261.164 669.991C292.897 671.236 304.447 644.444 304.447 644.444C305.193 635.853 301.428 620.383 306.128 624.715C309.372 627.705 308.731 613.137 313.162 614.588C314.494 615.024 312.168 624.71 313.162 625.289C313.712 625.609 314.524 622.968 315.942 620.868C317.124 619.116 318.947 617.819 319.324 618.201C319.58 618.461 319.335 620.964 318.27 623.083C316.775 626.06 314.273 628.925 314.623 629.403C315.008 629.928 321.605 622.826 322.007 623.446C324.676 627.566 307.77 674.983 279.243 683.935L276.984 684.637C260.355 689.749 253.371 690.446 237.964 683.935C230.658 680.847 226.115 709.685 222.054 719.283C219.49 725.344 207.036 740.197 201.349 735.705C193.846 729.779 187.728 718.749 181.343 713.169L180.933 712.82C176.582 709.21 166.74 703.732 151.407 696.386L152.098 696.016C155.297 694.334 163.537 690.22 169.863 683.935C178.853 675.004 183.722 655.822 189.988 645.477C196.176 635.263 204.479 636.767 199.468 634.96C199.468 634.96 186.77 627.176 180.933 626.463C161.439 624.083 136.025 634.743 127.896 641.613C116.741 651.039 127.824 664.91 112.41 658.112C107.273 655.846 121.042 626.49 140.034 614.588C166.432 598.044 191.393 593.493 216.417 619.829C226.602 630.547 227.61 640.088 230.341 647.363L229.782 645.58C259.971 643.277 214.738 608.306 252.501 599.554C256.467 598.635 260.629 599.592 264.605 600.655L266.062 601.051Z" fill="white"/>
<ellipse cx="246.62" cy="625.323" rx="2.35999" ry="2.73074" fill="#FFB61D"/>
<ellipse cx="259.6" cy="630.784" rx="2.36" ry="2.73071" fill="#FFB61D"/>
<path fill-rule="evenodd" clip-rule="evenodd" d="M122.594 731.222C148.175 751.717 115.445 723.407 143.395 757.144C149.039 763.956 177.617 725.047 180.565 748.107C181.64 756.518 179.295 765.273 180.725 773.613C182.058 781.395 211.311 776.723 213.571 773.32C221.762 760.981 196.271 729.286 190.926 724.22C161.099 695.949 151.256 697.91 123.387 727.16L122.594 731.222Z" fill="white"/>
<path fill-rule="evenodd" clip-rule="evenodd" d="M788.046 218.937C793.064 219.631 797.73 220.277 797.73 213.51C797.73 211.9 780.843 197.758 775.839 203.204C769.405 210.208 764.295 218.239 759.345 226.018C748.953 242.35 739.269 257.57 719.523 259.838L719.284 259.868C711.63 260.937 725.891 268.798 741.906 259.838C752.917 253.677 767.567 234.186 774.525 224.928C776.346 222.505 777.64 220.783 778.205 220.184L778.35 220.04C780.722 217.924 784.473 218.443 788.046 218.937ZM811.868 237.25L828.576 252.596C831.831 255.585 828.019 262.027 823.872 262.336C821.466 262.515 819.158 261.659 816.838 260.797C815.16 260.174 813.475 259.549 811.743 259.312C801.931 257.97 794.451 268.662 788.364 277.667C782.802 285.896 776.711 293.647 770.159 300.835L769.273 301.799L768.35 302.782C763.08 308.326 757.168 313.348 750.215 314.795C739.977 316.925 729.808 310.86 721.445 303.702C719.405 301.955 717.401 300.122 715.395 298.289L715.395 298.289C709.185 292.61 702.963 286.921 695.599 283.732C689.216 287.762 683.243 292.632 677.787 298.187L678.03 297.966C687.189 308.586 693.593 322.347 696.215 337.04L694.463 336.684L693.307 336.456C682.485 334.356 670.895 333.114 661.75 339.815C658.527 342.176 655.652 345.474 652.81 348.734C650.832 351.004 648.868 353.257 646.814 355.162C647.336 355.521 647.87 355.894 648.416 356.281C658.536 361.071 669.263 364.138 680.146 365.355C681.809 365.541 683.489 365.688 685.174 365.836L685.175 365.836L685.175 365.836L685.176 365.836L685.176 365.837L685.177 365.837C692.984 366.523 700.89 367.217 707.561 371.752L709.901 373.37C713.655 375.942 717.836 378.39 720.981 375.412C721.886 374.556 722.478 373.382 723.072 372.202C723.434 371.485 723.797 370.765 724.232 370.114C725.381 368.392 727.661 367.18 729.09 368.594L729.67 373.856C730.09 370.471 732.913 367.72 735.867 367.815C738.821 367.91 741.507 370.838 741.764 374.245C742.231 380.428 736.173 384.128 731.03 386.097L704.375 396.036C694.851 399.587 684.293 397.748 675.111 393.144C666.563 388.858 659.021 382.335 651.814 375.479L650.218 373.95C644.775 368.71 637.418 363.017 631.243 367.025C641.973 367.78 649.798 378.479 656.198 388.598L656.813 389.575C657.848 391.227 658.916 392.967 659.171 394.986C659.888 400.641 654.337 404.394 649.648 406.192C653.599 408.641 651.641 415.751 648.579 419.539C644.125 425.049 638.293 429.015 632.001 430.979L631.426 433.279C631.39 433.433 631.373 433.514 631.377 433.516C634.345 433.278 636.175 437.891 634.965 441.036C633.756 444.181 630.772 445.855 627.91 446.792C618.477 449.878 607.822 447.443 600.112 440.44L598.612 441.344C592.098 445.245 585.359 448.873 578.119 450.103C570.321 451.428 561.737 449.568 556.101 443.195L556.472 444.134C557.269 446.179 557.985 448.296 558.011 450.524C558.04 453.096 556.891 455.873 554.786 456.698C551.311 458.059 548.276 453.763 546.473 450.067C545.485 452.913 546.504 456.115 547.494 459.228C548.624 462.78 549.717 466.216 547.753 468.876C545.708 471.646 541.829 470.936 539.014 469.303C528.472 463.184 523.519 447.783 525.803 434.394C528.086 421.005 536.406 409.793 546.314 402.389C539.588 396.684 534.667 388.191 532.662 378.824C533.196 379.621 535.581 377.056 538.969 373.413L538.969 373.413C545.166 366.748 554.719 356.475 562.437 356.57C563.916 356.589 566.304 357.912 568.643 359.209L568.643 359.209C570.336 360.148 572.004 361.073 573.283 361.477C573.389 361.319 573.517 361.176 573.666 361.051L572.206 359.837C569.267 357.423 566.2 355.152 562.722 354.151C558.664 352.984 553.859 353.944 551.273 357.747C544.951 367.046 536.941 374.801 527.916 380.362L533.266 391.791C531.055 393.012 528.3 392.789 526.248 391.247L525.996 391.049L526.154 391.277C529.235 395.928 526.527 404.036 521.484 404.956C516.364 407.441 511.201 400.017 511.706 393.62C512.059 389.136 513.978 385.164 515.901 381.183L515.901 381.183C516.722 379.484 517.544 377.784 518.245 376.042C520.611 370.157 521.652 363.62 522.686 357.124C524.104 348.221 525.509 339.396 530.299 332.437C533.655 327.563 538.353 324.174 543.173 321.394C562.301 310.363 584.938 307.725 605.583 314.121C609.099 299.545 616.07 286.105 625.533 275.658L626.097 275.046C629.718 271.186 634.221 267.738 639.023 268.371L639.403 268.43C644.171 269.271 648.316 265.014 651.781 261.073L652.85 259.86L653.687 258.927C660.565 251.326 668.549 244.312 677.945 243.555C686.304 242.882 694.306 247.323 701.521 252.253C709.684 257.831 717.449 264.189 724.711 271.24L725.987 272.492C726.326 272.828 726.667 273.167 727.01 273.508L727.014 273.512C733.863 280.318 741.356 287.766 750.271 287.149C759.411 286.516 766.088 277.737 772.24 269.648C772.738 268.993 773.233 268.343 773.724 267.703C781.314 257.817 789.957 249.114 798.704 240.589L802.456 236.944C803.592 235.842 804.814 234.695 806.283 234.475C808.35 234.164 810.235 235.751 811.868 237.25ZM646.675 404.819C644.818 404.391 642.284 404.578 639.072 405.38C641.187 405.389 642.967 405.346 644.412 405.249C645.112 405.149 645.808 405.023 646.492 404.864L646.675 404.819ZM577.876 357.486C578.554 356.681 579.269 355.833 580.062 355.107C581.537 354.207 583.198 353.751 584.871 353.934C590.531 354.556 594.817 361.522 594.077 368.044C591.089 376.611 583.695 381.499 576.382 386.334C571.877 389.312 567.402 392.27 564.008 396.055C564.86 394.43 565.792 393.132 566.738 392.336C569.689 389.85 572.776 387.695 575.685 385.665C578.13 383.958 580.45 382.339 582.459 380.684C585.62 378.079 587.743 375.604 589.388 373.686C590.646 372.22 591.625 371.079 592.574 370.455C592.652 370.404 596.219 362.038 587.596 356.57C581.085 352.441 578.184 357.664 576.626 360.471C576.12 361.382 575.755 362.038 575.455 362.038C575.376 362.038 575.267 362.024 575.131 361.997C575.346 361.106 575.674 360.246 576.093 359.441C576.677 358.909 577.261 358.216 577.876 357.486L577.876 357.486ZM579.717 355.328C578.236 356.321 576.966 357.762 576.093 359.441L575.879 359.629C575.45 359.99 575.019 360.256 574.574 360.377C573.678 360.621 571.544 358.727 569.737 357.123C568.656 356.163 567.692 355.307 567.179 355.075C563.799 353.541 563.403 353.519 561.059 353.391C560.663 353.369 560.212 353.344 559.681 353.309L558.709 353.238C558.496 353.224 558.261 353.213 558.011 353.2H558.011H558.011C556.068 353.106 553.273 352.97 553.831 351.223C563.816 319.953 606.478 313.148 599.424 348.496C598.841 351.418 597.31 353.977 595.779 356.535L595.778 356.535C595.013 357.814 594.247 359.093 593.6 360.418C590.843 355.885 587.839 353.495 584.589 353.249C582.776 353.112 581.321 353.954 580.062 355.107L579.717 355.328ZM657.103 327.276L657.112 327.258C654.764 332.422 652.243 338.638 649.549 345.905C651.575 339.448 654.112 333.21 657.103 327.276ZM676.125 332.038L675.798 332.053C673.195 332.179 670.859 332.63 668.792 333.405C666.499 334.264 664.058 335.702 661.471 337.718C665.999 334.816 671.002 332.875 676.125 332.038Z" fill="white"/>
<path fill-rule="evenodd" clip-rule="evenodd" d="M543.007 463.002C540.962 465.772 537.998 464.878 535.281 461.814C529.598 455.403 527.314 443.033 529.598 429.644C531.881 416.255 540.783 410.739 550.691 403.335C546.245 401.216 538.191 387.782 537.382 374.728C540.123 378.819 540.267 386.162 543.007 390.254C545.608 394.136 550.804 398.863 553.405 402.745C553.737 403.241 554.023 404.074 553.552 404.384C544.054 410.625 537.899 412.691 532.297 429.643C526.695 446.595 538.069 462.276 539.58 461.814C541.442 461.246 540.782 458.387 539.713 456.534C536.696 451.308 539.566 444.338 542.024 438.734C543.339 440.439 540.179 445.331 540.844 450.417C541.494 455.383 544.828 460.536 543.007 463.002Z" fill="#E7EAEE"/>
<ellipse cx="581.74" cy="406.869" rx="2.35999" ry="2.73067" fill="#FFB61D"/>
<ellipse cx="573.48" cy="395.946" rx="2.35999" ry="2.73067" fill="#FFB61D"/>
<path d="M220.554 422.764C221.919 425.711 219.774 429.924 216.885 429.971C214.411 413.881 211.744 397.231 203.694 383.801C188.28 358.087 156.518 349.641 143.321 322.325C134.336 329.725 120.596 327.838 113.357 318.211C108.855 312.224 101.007 311.489 94.2456 312.825C87.4845 314.16 80.8789 317.113 74.0233 316.862C71.0485 316.754 67.8074 315.828 66.0761 313.027C64.3448 310.226 65.345 305.296 68.2912 304.808C81.1266 302.682 93.9621 300.556 106.797 298.431C107.805 298.264 108.875 298.065 109.64 297.288C110.506 296.409 110.778 295.003 111.002 293.695C112.861 282.875 114.199 269.975 107.313 262.345C101.606 256.021 92.5987 256.239 84.8451 258.003C77.0916 259.768 69.1007 262.67 61.4595 260.341C53.8182 258.011 47.428 247.509 51.5473 239.706C54.3063 234.48 51.1953 227.511 46.9395 223.87C42.6837 220.23 37.3874 218.436 33.2623 214.6C29.1373 210.763 26.5193 203.36 29.805 198.559C31.2501 196.448 33.5127 195.335 35.7326 194.525C43.0794 191.843 51.2715 191.639 58.3534 195.147C65.4352 198.656 71.1863 206.176 72.3387 214.989C73.2776 222.17 71.4936 230.523 75.5959 236.019C80.9593 243.204 90.8722 239.174 99.0774 239.087C107.469 238.999 115.768 244.147 120.349 252.284C124.929 260.42 125.645 271.284 122.183 280.13C131.931 268.654 145.06 259.851 158.957 260.45C171.793 261.003 183.587 269.546 192.171 280.601C200.756 291.657 206.612 305.121 212.355 318.415C214.494 323.368 219.921 326.052 224.494 324.419C229.066 322.787 232.242 317.031 231.597 311.544C235.582 312.549 235.997 318.783 236.12 323.5C236.378 333.41 239.48 343.195 244.821 350.948C246.608 347.134 247.972 343.054 248.868 338.842C252.767 344.028 254.221 351.535 252.61 358.151C250.998 364.768 246.369 370.291 240.703 372.358C237.688 373.458 234.002 373.987 232.505 377.21C238.159 388.665 243.022 400.643 247.033 412.991C249.184 419.613 250.735 428.133 246.208 432.888C240.975 428.417 238.001 421.325 235.224 414.518C230.893 403.9 226.561 393.281 222.23 382.663" fill="white"/>
<path fill-rule="evenodd" clip-rule="evenodd" d="M234.842 316.476C233.704 329.333 237.864 342.684 245.83 351.745C248.67 349.761 250.486 345.955 250.424 342.117C253.409 347.796 251.736 355.498 248.024 360.571C244.312 365.644 238.987 368.686 233.819 371.589C230.857 373.252 227.783 374.949 224.493 375.062C219.473 375.236 214.976 371.743 210.872 368.395L198.83 358.571C205.052 372.004 219.213 379.826 232.152 376.977C241.15 391.582 246.659 409.034 247.916 426.911L245.497 421.741C245.475 421.678 245.445 421.615 245.409 421.553L245.497 421.741C245.844 422.732 244.485 423.829 243.57 423.316C242.596 422.771 242.229 421.415 241.941 420.208C238.399 405.345 232.05 391.387 223.469 379.592L236.463 411.447C239.24 418.254 242.214 425.346 247.447 429.817C251.974 425.063 250.423 416.542 248.272 409.92C244.261 397.572 239.398 385.594 233.744 374.139C234.96 371.522 237.619 370.681 240.19 369.869L240.191 369.869C240.786 369.681 241.376 369.494 241.943 369.287C247.609 367.22 252.237 361.697 253.849 355.081C255.461 348.464 254.006 340.957 250.107 335.771C249.211 339.983 247.848 344.063 246.061 347.877C240.719 340.124 237.617 330.34 237.359 320.429C237.236 315.712 236.821 309.479 232.836 308.473C233.481 313.96 230.305 319.716 225.733 321.348C221.16 322.981 215.734 320.297 213.594 315.344C207.852 302.05 201.995 288.586 193.411 277.53C184.826 266.475 173.032 257.933 160.196 257.379C146.299 256.78 133.17 265.583 123.422 277.059C126.884 268.213 126.169 257.349 121.588 249.213C117.007 241.076 108.709 235.928 100.317 236.016C98.1879 236.039 95.9442 236.327 93.6949 236.615C87.2741 237.439 80.807 238.269 76.8351 232.948C74.0297 229.189 73.9771 224.095 73.924 218.953C73.8994 216.576 73.8747 214.189 73.5779 211.918C72.4255 203.105 66.6744 195.585 59.5926 192.076C52.5107 188.568 44.3186 188.772 36.9718 191.454C34.7519 192.264 32.4893 193.377 31.0442 195.488C27.7586 200.289 30.3765 207.692 34.5015 211.529C36.6725 213.548 39.168 215.001 41.6654 216.456L41.6654 216.456L41.6654 216.456L41.6655 216.456L41.6655 216.456C43.9133 217.765 46.1627 219.075 48.1787 220.799C52.4345 224.44 55.5455 231.409 52.7865 236.635C48.6672 244.438 55.0574 254.94 62.6987 257.27C69.0153 259.196 75.5708 257.546 82.0337 255.92L82.0341 255.919L82.0344 255.919L82.0348 255.919L82.0352 255.919L82.0355 255.919L82.0359 255.919C83.3905 255.578 84.741 255.238 86.0843 254.933C93.8379 253.168 102.845 252.95 108.553 259.274C115.439 266.904 114.1 279.804 112.242 290.624C112.017 291.932 111.745 293.338 110.879 294.217C110.114 294.994 109.045 295.193 108.037 295.36L69.5304 301.737C66.5842 302.225 65.584 307.155 67.3153 309.956C69.0466 312.757 72.2877 313.683 75.2625 313.792C79.8109 313.958 84.2492 312.714 88.696 311.468L88.696 311.468L88.6961 311.468L88.6962 311.468L88.6964 311.468L88.6965 311.468L88.6966 311.468L88.6967 311.468C90.9521 310.836 93.2097 310.203 95.4848 309.754C102.246 308.418 110.094 309.153 114.596 315.14C121.835 324.768 135.575 326.654 144.56 319.254C151.504 333.628 163.589 342.777 175.728 351.966C186.657 360.24 197.63 368.547 204.933 380.73C212.983 394.16 215.651 410.81 218.125 426.901C221.013 426.853 223.158 422.64 221.794 419.694L219.079 423.836C218.077 398.475 206.883 373.897 189.369 358.605C185.032 354.818 180.276 351.498 175.53 348.185C165.101 340.906 154.722 333.661 148.948 321.57C148.428 320.481 147.943 319.328 147.859 318.087C147.753 316.518 148.293 315.005 148.815 313.545L148.815 313.545L148.815 313.545L148.889 313.337C150.971 307.494 152.425 301.083 151.403 294.875C150.38 288.667 146.341 282.797 140.939 281.863C150.083 288.63 151.957 305.424 144.599 314.656C137.242 323.889 122.623 323.086 116.054 313.089C110.789 305.077 100.261 306.058 91.7874 308.33C83.3134 310.603 73.3343 312.981 66.7881 306.353C80.7932 301.897 95.2047 299.154 109.705 298.183C113.16 297.952 114.515 292.966 114.98 288.999C115.695 282.9 116.41 276.703 115.627 270.616C114.843 264.528 112.343 258.456 107.878 255.11C102.517 251.092 95.5961 251.715 89.2434 252.484L72.3609 254.528C68.7233 254.968 64.9849 255.4 61.4579 254.279C57.931 253.158 54.6125 250.116 53.9363 245.957C53.5092 243.33 54.1591 240.743 54.8143 238.135C55.286 236.258 55.7605 234.37 55.8378 232.448C56.0581 226.975 53.0024 221.96 49.2894 218.56C47.0144 216.476 44.4795 214.837 41.9422 213.196C40.3383 212.159 38.7334 211.121 37.1926 209.97C34.2925 207.804 31.3168 204.303 32.1231 200.419C32.6388 197.935 34.5814 196.214 36.5343 195.023C43.128 191.001 51.3697 190.82 58.0905 194.55C64.8112 198.279 69.8485 205.829 71.2655 214.296C71.6151 216.385 71.7739 218.567 71.9325 220.744V220.744C72.2992 225.78 72.6642 230.792 75.3837 234.576C78.6321 239.096 84.2464 240.235 89.3211 239.955C91.061 239.859 92.8008 239.633 94.5391 239.408C97.8709 238.976 101.197 238.545 104.51 239.028C115.648 240.651 124.424 254.06 122.754 266.905C122.662 267.616 122.543 268.332 122.424 269.051L122.424 269.051C121.999 271.614 121.57 274.201 122.326 276.607C123.295 279.689 127.531 281.33 128.874 278.442C134.889 265.501 148.684 258.981 161.297 260.69C173.911 262.399 185.198 271.187 193.479 282.327C201.76 293.468 207.394 306.874 212.531 320.311C214.341 325.045 219.729 326.759 224.033 325.351C228.337 323.942 231.753 320.219 234.842 316.476ZM212.239 339.03C212.361 339.01 212.645 339.653 213.072 340.622C214.125 343.006 216.051 347.367 218.589 348.693C218.476 349.929 216.797 349.268 216.099 348.323C214.113 345.64 212.007 342.552 212.239 339.03ZM218.231 360.212C219.541 362.434 211.694 363.54 209.085 361.601C209.545 361.499 210.15 361.553 210.82 361.614C211.615 361.685 212.501 361.765 213.344 361.601C214.577 361.361 215.768 360.923 216.667 360.592C217.539 360.271 218.136 360.052 218.231 360.212ZM216.347 351.956C213.223 352.575 209.386 347.761 209.386 343.233C210.286 346.581 213.484 349.237 215.252 350.704L215.252 350.704L215.252 350.704L215.253 350.705L215.253 350.705L215.253 350.705L215.253 350.705L215.254 350.705L215.254 350.706C216.152 351.451 216.68 351.89 216.347 351.956ZM227.539 370.888C223.379 370.888 221.493 362.771 223.379 362.249C223.83 362.013 223.851 362.74 223.882 363.813C223.915 364.942 223.96 366.454 224.527 367.632C225.157 368.94 226.491 369.815 227.27 370.325C227.859 370.711 228.13 370.888 227.539 370.888ZM232.174 359.835C233.088 360.417 233.921 361.319 234.157 362.495C234.394 363.67 233.826 365.094 232.805 365.339C232.485 364.795 232.659 364.45 232.841 364.085C233.11 363.55 233.399 362.974 232.174 361.668C231.659 361.118 231.058 360.879 230.637 360.712C230.313 360.583 230.095 360.496 230.104 360.342C230.156 359.366 231.433 359.363 232.174 359.835ZM224.387 349.257C224.181 349.422 224.039 349.536 224.161 349.667C224.537 350.071 224.979 350.265 225.421 349.971C225.758 349.747 225.929 349.292 226.008 348.852C226.452 346.393 224.208 343.853 222.093 344.421C222.28 344.993 222.64 345.177 223.076 345.399C223.579 345.656 224.185 345.964 224.747 346.983C225.506 348.357 224.81 348.916 224.387 349.257ZM223.675 372.441C221.226 371.616 218.803 364.922 220.107 364.414C220.921 364.098 220.916 364.149 220.869 364.679C220.825 365.164 220.746 366.05 221.226 367.424C221.821 369.13 222.654 370.514 223.185 371.396C223.549 372 223.771 372.368 223.675 372.441ZM784.791 220.458C779.531 221.205 775.386 226.113 772.772 231.447C771.509 234.025 770.497 236.754 769.486 239.482L769.485 239.483L769.485 239.484L769.485 239.484C768.405 242.399 767.325 245.312 765.938 248.042C759.32 261.064 746.745 268.183 734.696 274C732.618 275.003 728.978 274.532 729.626 272.037C749.355 267.705 766.339 249.632 771.717 227.246C772.35 224.609 769.386 222.383 767.098 223.08C765.029 223.711 763.555 225.709 762.225 227.691L761.809 228.314C750.82 244.853 735.045 258.835 717.032 259.737C715.757 259.801 713.933 258.901 714.494 257.575C727.835 257.057 740.411 249.438 750.318 239.086C760.224 228.734 767.778 215.758 774.845 202.655C775.938 200.628 778.563 201.061 780.517 201.833C786.514 204.199 792.266 207.39 797.616 211.318C800.487 213.427 798.212 219.054 794.948 220.157C793.072 220.791 791.112 220.638 789.144 220.483C787.688 220.369 786.227 220.254 784.791 220.458ZM779.667 207.552L779.207 207.391C777.803 206.925 776.235 206.667 775.106 207.675C774.668 208.066 774.355 208.605 774.068 209.155L770.313 216.48C772.284 217.008 774.172 217.942 775.864 219.226C777.246 220.275 779.15 220.315 780.564 219.325C781.978 218.336 782.831 216.366 782.67 214.463C782.609 213.753 783.615 213.56 784.035 214.082C784.348 214.472 784.442 215.007 784.536 215.54L784.536 215.541L784.536 215.543L784.536 215.543C784.568 215.723 784.599 215.902 784.639 216.076C784.797 216.765 785.283 217.507 785.887 217.366C786.5 216.692 786.835 215.694 786.776 214.719C786.995 213.712 788.353 214.61 788.563 215.619C788.773 216.628 789.167 218.063 790.033 217.794C791.306 217.429 791.706 215.377 791.086 214.04C790.466 212.703 789.217 211.947 788.027 211.309C785.313 209.854 782.519 208.598 779.667 207.552ZM768.256 219.461C770.216 221.743 773.068 222.958 775.839 222.69C774.141 220.215 771.251 218.922 768.555 219.401L768.256 219.461ZM627.91 446.792C618.477 449.878 607.823 447.443 600.112 440.44C593.132 444.673 585.916 448.778 578.119 450.103C570.322 451.428 561.738 449.568 556.101 443.195C557.032 445.53 557.982 447.953 558.011 450.524C558.04 453.096 556.891 455.873 554.786 456.698C551.312 458.059 548.276 453.763 546.473 450.067C545.485 452.913 546.504 456.115 547.494 459.228C548.624 462.78 549.717 466.216 547.753 468.876C545.708 471.646 541.829 470.936 539.014 469.303C528.472 463.184 523.519 447.783 525.803 434.394C528.087 421.005 536.407 409.793 546.314 402.389C539.588 396.684 534.667 388.191 532.662 378.824C534.033 380.869 535.049 383.246 536.065 385.623L536.065 385.623C537.081 387.999 538.097 390.376 539.467 392.421C540.768 394.362 542.422 395.973 544.076 397.583L544.076 397.583C545.73 399.194 547.385 400.804 548.685 402.745C549.017 403.241 549.303 404.074 548.832 404.384C539.334 410.626 531.209 420.572 528.514 432.82C525.819 445.067 529.569 459.525 538.87 466.152C540.51 467.32 542.465 468.257 544.326 467.688C546.188 467.12 547.584 464.416 546.515 462.563C543.498 457.336 543.132 450.212 545.591 444.608L553.385 454.72C555.177 454.187 555.62 451.397 555.143 449.329C554.992 448.673 554.785 448.026 554.578 447.38L554.578 447.379L554.578 447.378C554.133 445.987 553.689 444.601 553.809 443.145C553.983 441.014 556.387 439.107 557.657 440.664C562.726 446.88 570.87 448.643 578.16 447.275C585.451 445.907 592.129 441.858 598.66 437.867L606.369 433.157C605.812 435.73 604.01 437.89 601.808 438.623C609.249 444.808 619.198 446.752 627.982 443.736C629.495 443.216 631.048 442.497 632.029 441.067C633.01 439.637 633.169 437.31 631.984 436.105C631.899 436.018 631.808 435.938 631.715 435.86C631.671 435.824 631.627 435.788 631.583 435.753L631.519 435.702L631.516 435.699C631.199 435.446 630.884 435.194 630.702 434.809C630.429 434.228 630.853 433.251 631.377 433.517C634.345 433.278 636.175 437.891 634.966 441.036C633.756 444.181 630.772 445.855 627.91 446.792ZM575.246 401.143C573.552 400.513 571.65 401.865 570.914 403.74C570.177 405.615 570.386 407.819 570.943 409.775C571.12 407.569 571.363 405.905 572.085 404.455C572.396 403.829 573.359 403.239 574.206 402.72C575.302 402.05 576.202 401.499 575.246 401.143ZM573.81 395.598C576.282 394.885 579.074 395.987 580.656 398.298C582.237 400.609 582.523 404.007 581.356 406.628C581.076 406.236 581.01 405.526 580.927 404.636C580.682 402.006 580.289 397.803 573.81 395.598ZM571.666 415.917C570.883 417.047 573.608 420.032 577.869 417.973C578.658 417.592 578.014 417.548 576.998 417.479C576.072 417.417 574.838 417.333 574.102 416.953C573.479 416.632 573.16 416.116 572.921 415.731C572.567 415.16 572.389 414.873 571.666 415.917ZM580.299 419.696C583.029 418.122 581.316 422.737 575.604 422.172C575.089 422.121 574.416 421.89 574.421 421.29C574.423 421.079 574.906 421.03 575.657 420.954C576.824 420.837 578.638 420.654 580.299 419.696ZM563.451 410.936C564.479 412.098 565.975 412.128 566.973 411.905C567.581 411.77 567.88 411.14 567.322 410.936C567.192 410.889 566.976 410.849 566.716 410.802C566.123 410.694 565.303 410.544 564.753 410.16C564.4 409.914 564.199 409.073 564.026 408.352C563.849 407.611 563.702 406.997 563.451 407.285C562.958 407.853 562.424 409.775 563.451 410.936ZM564.363 414.865C564.86 415.741 562.966 415.44 562.559 414.865C562.151 414.29 561.75 412.128 562.432 412.128C562.63 412.128 562.698 412.469 562.779 412.877C562.854 413.254 562.94 413.688 563.151 413.964C563.559 414.501 563.833 414.58 564.034 414.639C564.171 414.678 564.274 414.708 564.363 414.865ZM649.582 410.516C650.603 412.877 648.815 415.524 647.093 417.255C640.088 424.292 631.716 429.497 622.779 432.373C632.411 432.448 642 427.679 648.579 419.539C651.641 415.751 653.599 408.641 649.648 406.192C654.337 404.394 659.888 400.641 659.171 394.986C658.916 392.967 657.849 391.227 656.813 389.575L656.198 388.598C649.798 378.479 641.973 367.78 631.243 367.025C637.419 363.017 644.775 368.71 650.218 373.95L651.814 375.479C659.021 382.335 666.563 388.858 675.111 393.144C684.293 397.748 694.851 399.587 704.375 396.036L731.03 386.097C736.173 384.128 742.231 380.428 741.764 374.245C741.507 370.838 738.821 367.91 735.867 367.814C732.913 367.719 730.09 370.471 729.67 373.856L729.09 368.594C727.661 367.18 725.381 368.392 724.232 370.114C723.797 370.765 723.434 371.485 723.073 372.202C722.478 373.382 721.886 374.556 720.981 375.412C717.836 378.39 713.655 375.942 709.901 373.37L707.561 371.752C700.89 367.217 692.984 366.523 685.177 365.837C683.491 365.688 681.81 365.541 680.146 365.355C669.263 364.138 658.536 361.07 648.416 356.281C657.697 365.086 669.823 366.564 682.054 368.056C688.218 368.807 694.409 369.561 700.276 371.259C704.93 372.605 710.074 375.349 711.216 380.74C712.874 388.568 704.837 394.631 697.901 395.363C686.556 396.561 675.502 390.979 665.87 383.854L664.786 383.042C661.3 380.394 657.921 377.545 654.544 374.698L654.544 374.697C648.348 369.473 642.157 364.254 635.318 360.286C642.382 360.698 647.541 354.78 652.81 348.734C655.653 345.474 658.527 342.176 661.75 339.815C671.222 332.875 683.316 334.455 694.463 336.684L696.215 337.04C693.593 322.347 687.189 308.586 678.03 297.965L693.768 333.764C677.198 327.377 657.328 335.358 647.742 352.25C655.141 323.363 672.741 298.164 695.599 283.732C702.964 286.921 709.185 292.61 715.396 298.289L715.397 298.29L715.397 298.29C717.402 300.123 719.405 301.955 721.446 303.702C729.808 310.86 739.977 316.925 750.215 314.795C757.577 313.263 763.772 307.723 769.273 301.799L770.159 300.835C776.712 293.647 782.802 285.896 788.364 277.667C794.451 268.662 801.931 257.97 811.743 259.312C813.476 259.549 815.16 260.174 816.838 260.797C819.158 261.658 821.466 262.515 823.872 262.336C828.019 262.027 831.831 255.585 828.576 252.595L811.868 237.25C810.235 235.751 808.351 234.164 806.283 234.475C804.814 234.695 803.592 235.842 802.456 236.944L798.704 240.589C789.957 249.114 781.314 257.817 773.725 267.703C773.233 268.343 772.738 268.993 772.241 269.648C766.088 277.737 759.411 286.516 750.271 287.149C741.356 287.766 733.863 280.318 727.015 273.512L726.953 273.45C726.629 273.129 726.308 272.809 725.987 272.492L724.711 271.24C717.449 264.189 709.684 257.831 701.521 252.253C694.306 247.323 686.304 242.882 677.945 243.555C668.165 244.343 659.916 251.909 652.85 259.86L651.781 261.073C648.316 265.014 644.171 269.271 639.403 268.43L639.023 268.371C634.221 267.738 629.718 271.186 626.098 275.046L625.533 275.658C616.07 286.105 609.099 299.545 605.583 314.121C584.938 307.725 562.301 310.363 543.173 321.394C538.354 324.173 533.655 327.563 530.299 332.437C525.509 339.396 524.104 348.221 522.686 357.124C521.652 363.62 520.612 370.157 518.245 376.041C517.544 377.784 516.722 379.484 515.901 381.183C513.978 385.164 512.059 389.136 511.706 393.62C511.202 400.017 516.364 407.441 521.484 404.955C526.611 404.021 529.325 395.655 525.995 391.048C528.07 392.768 530.963 393.063 533.266 391.79L527.916 380.362C536.942 374.801 544.951 367.046 551.273 357.747C553.859 353.944 558.664 352.984 562.722 354.151C566.2 355.152 569.267 357.423 572.206 359.837L573.666 361.051C571.964 362.483 572.944 366.29 575.046 366.411C573.69 360.022 579.211 353.313 584.871 353.935C590.531 354.557 594.817 361.522 594.077 368.044C591.089 376.612 583.694 381.5 576.381 386.335C568.445 391.58 560.606 396.763 558.594 406.513C556.568 416.336 563.115 427.337 571.769 428.65C580.422 429.963 589.2 421.288 589.431 411.193C589.431 411.193 590.712 411.346 591.165 409.775C591.879 407.301 592.555 404.561 593.224 401.845L593.226 401.838C594.486 396.727 595.725 391.703 597.156 388.702C601.168 380.287 608.636 373.624 616.94 373.391C619.577 373.318 622.197 372.865 624.815 372.413C628.159 371.835 631.498 371.259 634.863 371.473C640.862 371.856 647.438 375.92 648.303 382.8C641.651 381.305 634.709 381.557 628.151 383.532L651.37 386.728C656.469 387.429 657.423 396.564 653.789 400.762C650.362 404.719 645.142 405.37 640.256 405.622L639.371 405.664C640.225 407.68 642.349 407.888 644.474 408.097C646.594 408.305 648.716 408.513 649.582 410.516ZM773.097 293.113C765.898 302.361 757.483 312.3 746.734 312.763C737.335 313.169 729.113 306.16 721.509 299.678L720.947 299.199L719.131 297.664C710.635 290.533 701.835 283.886 692.775 277.756C685.758 273.009 677.688 268.424 669.819 270.778L682.277 275.315C680.176 276.618 679.428 280.166 680.773 282.443C681.061 279.034 684.469 276.866 687.394 277.399C690.318 277.932 692.697 280.416 694.509 283.126C678.804 290.094 665.442 303.889 657.676 321.152C656.232 324.363 654.975 327.684 653.719 331.004C652.017 335.504 650.316 340 648.149 344.217C644.383 351.545 638.807 358.212 631.632 360.153C630.628 360.425 629.597 360.604 628.569 360.782C626.506 361.139 624.45 361.495 622.615 362.601C622.471 362.688 622.322 362.779 622.171 362.872L621.977 362.992C619.823 364.323 617.167 365.964 615.84 363.8C613.665 360.255 610.198 357.809 606.478 357.196C612.628 333.288 628.45 312.972 648.363 303.414C649.49 302.873 649.058 300.922 648.443 299.703L639.386 281.771C638.549 280.114 639.528 277.862 641.002 276.983C642.476 276.105 644.233 276.236 645.878 276.474C656.355 277.983 666.442 282.958 674.639 290.657C675.951 291.888 678.099 293.097 679.058 291.489C669.707 280.577 656.331 275.517 643.167 273.478C654.546 272.192 666.313 276.338 675.14 284.744L675.57 285.151C677.679 287.133 680.232 289.238 682.663 288.023C672.805 277.082 659.324 270.625 645.667 270.302C648.477 267.884 651.1 265.196 653.724 262.508L653.725 262.508L653.726 262.507C656.392 259.776 659.059 257.044 661.92 254.596C667.598 249.739 674.384 245.946 681.433 246.423C686.551 246.768 691.349 249.324 695.877 252.105C705.448 257.985 714.46 265.082 722.697 273.228C723.281 273.805 723.867 274.39 724.458 274.979C732.288 282.786 740.83 291.303 750.95 290.203C757.121 289.532 762.588 285.218 766.931 280.102C769.334 277.271 771.476 274.171 773.62 271.07C775.35 268.566 777.081 266.061 778.95 263.697C781.646 260.288 784.768 257.081 788.599 255.779C792.431 254.478 797.102 255.555 799.378 259.353L773.097 293.113ZM525.096 356.448C526.484 347.661 527.857 338.971 532.989 332.574C535.502 329.442 538.718 327.186 541.991 325.204C558.737 315.07 578.266 311.212 596.969 314.344C601.546 315.111 607.217 318.082 607.143 323.11C607.116 323.417 607.09 323.725 607.067 324.033C607.114 323.718 607.139 323.41 607.143 323.11C609.008 302.086 619.592 282.307 635.054 271.043C636.425 282.107 640.614 292.683 646.962 301.107C630.138 309.307 616.168 325.072 608.664 344.328L608.545 344.632C606.414 350.031 603.033 356.659 598.097 355.315L600.541 337.844C600.765 336.242 600.972 334.507 600.316 333.073C599.583 331.472 598.016 330.734 596.488 330.202L595.952 330.021C587.106 327.124 577.181 324.341 569.102 329.419C564.827 332.105 561.759 336.607 558.89 341.229L556.76 344.691C551.704 352.859 546.043 360.526 539.86 367.581C537.37 370.422 534.678 373.245 531.344 374.468C528.01 375.691 523.867 374.868 521.888 371.531C523.467 366.763 524.284 361.589 525.096 356.448ZM579.618 424.526C574.366 426.78 570.092 425.669 565.992 422.907C564.237 421.725 562.585 420.203 561.597 418.151C560.115 415.073 560.337 411.253 561.192 407.872C562.469 402.817 565.083 398.226 568.593 394.873C571.02 392.555 573.814 390.853 576.608 389.152L576.609 389.151C577.573 388.564 578.537 387.977 579.485 387.365C588.75 381.385 596.742 372.786 602.57 362.528C603.733 360.481 606.185 359.817 608.237 360.422C610.289 361.027 611.999 362.653 613.479 364.406C614.538 365.66 615.324 368.154 613.91 368.787C604.018 373.219 596.051 383.053 592.868 394.762C592.781 395.082 592.697 395.404 592.612 395.728C592.129 397.58 591.639 399.454 590.601 400.953C589.382 402.713 586.934 408.91 588.183 411.849C588.183 411.849 584.871 422.272 579.618 424.526ZM593.344 331.771C594.947 332.187 596.692 332.785 597.572 334.39C598.291 335.705 598.245 337.376 598.133 338.926C597.686 345.06 596.572 351.128 594.824 356.942C594.528 357.924 593.616 359.106 592.951 358.406C592.197 354.005 588.722 350.426 584.856 350.071C580.991 349.716 577.071 352.615 575.726 356.823C575.461 357.654 574.528 357.963 573.789 357.734C573.235 357.562 572.761 357.174 572.308 356.755L571.86 356.333C567.255 352.005 561.023 350.083 555.167 351.186C558.286 345.111 562.244 339.614 566.844 334.965C568.726 333.063 570.768 331.269 573.146 330.377C575.383 329.538 577.787 329.546 580.136 329.684C584.579 329.946 589.003 330.645 593.344 331.771ZM803.321 254.462C801.083 251.7 798.015 249.853 794.773 249.328L798.451 243.924C799.617 242.229 800.98 240.491 802.819 240.224C804.146 240.031 805.45 240.661 806.657 241.326C810.697 243.553 814.504 246.343 817.972 249.616C819.129 250.708 820.292 251.927 820.795 253.554C821.298 255.18 820.893 257.31 819.545 258.054C818.198 258.798 816.257 257.168 816.809 255.563L816.862 255.383C817.089 254.471 816.732 253.393 816.018 252.912L814.717 255.801C814.597 256.053 814.457 256.297 814.243 256.435C813.374 256.99 812.667 255.428 812.611 254.281L812.601 254.122C812.508 252.992 811.996 251.552 811.098 251.903C810.977 253.838 809.781 255.625 808.193 256.245C806.605 256.865 804.717 256.281 803.608 254.827L803.321 254.462ZM522.929 397.032L521.357 390.133C520.61 389.891 519.881 390.758 519.775 391.647C519.704 392.24 519.818 392.826 519.972 393.404L520.214 394.266C521.021 397.194 521.001 400.42 520.157 403.334C518.599 399.644 517.786 395.536 517.801 391.429C516.785 390.784 516.093 392.753 516.167 394.091L516.605 402.078C514.475 399.856 513.724 396.252 514.088 392.961C514.452 389.67 515.788 386.631 517.289 383.805C518.073 382.329 518.941 380.85 520.188 379.892C521.435 378.934 523.152 378.605 524.426 379.515C525.483 380.271 525.974 381.614 526.472 382.976C526.849 384.005 527.229 385.046 527.861 385.851C528.086 386.136 528.347 386.428 528.613 386.725C529.642 387.874 530.742 389.101 530.022 390.338C527.806 388.763 525.779 386.833 524.017 384.619C523.379 389.191 523.964 393.982 525.669 398.171C526.018 399.028 524.865 399.845 524.14 399.406C523.414 398.967 523.138 397.949 522.929 397.032ZM735.782 374.461C736.917 373.299 737.955 372.237 738.457 372.526C739.92 373.37 735.946 377.08 733.842 378.128C733.994 379.304 735.469 378.777 736.33 378.128C737.191 377.48 739.602 376.782 739.13 377.488C736.189 381.889 730.511 385.387 725.261 386.071C723.133 386.349 720.503 385.691 719.824 383.341C719.206 381.196 720.583 379.081 722.039 377.488L722.389 377.115C723.001 376.482 723.984 375.864 724.548 376.554C726.048 378.391 728.67 376.889 730.398 375.343C730.398 375.343 734.888 370.331 735.642 370.652C736.39 370.97 733.401 376.622 733.401 376.622C734.142 376.141 734.986 375.277 735.782 374.461ZM714.287 379.115C714.825 378.973 715.384 379.224 715.848 379.568C717.536 380.822 718.341 383.464 717.708 385.666C717.074 387.867 715.059 389.422 713.059 389.254C712.775 389.23 712.478 389.168 712.256 388.962C711.789 388.529 711.849 387.702 711.952 387.021L712.705 382.035C712.887 380.831 713.257 379.385 714.287 379.115ZM619.171 367.794C622.064 367.228 625.059 367.366 627.904 368.197C627.74 369.554 626.369 370.171 625.209 370.449C621.629 371.305 617.929 371.489 614.299 370.993C615.208 369.015 617.262 368.167 619.171 367.794ZM800.539 257.236L792.946 252.048C796.687 251.401 800.676 253.675 802.513 257.5C801.987 258.056 801.152 257.655 800.539 257.236ZM634.169 361.28C630.951 362.266 627.769 363.412 624.635 364.715C627.89 366.797 632.511 365.132 634.169 361.28ZM602.708 356.57C603.593 356.782 603.192 358.395 602.485 359.048C600.334 361.036 597.064 361.208 594.766 359.453L602.708 356.57ZM804.749 236.234C805.27 236.092 805.807 236.336 806.295 236.591C809.466 238.247 812.37 240.584 814.816 243.447L803.905 237.001C804.073 236.621 804.39 236.333 804.749 236.234ZM638.524 271.059L638.632 271.146C639.616 270.982 640.633 271.079 641.581 271.426C640.753 273.236 639.601 274.846 638.22 276.126C637.528 274.539 637.65 272.52 638.524 271.059ZM825.225 253.347L825.248 253.426C826.453 253.993 827.274 255.506 827.19 257.009C824.707 255.518 822.698 252.998 821.614 250.014C823.097 250.608 824.394 251.805 825.225 253.347ZM599.322 363.532L599.141 363.817C598.513 364.806 597.763 365.88 596.709 366.022C595.655 366.164 594.575 364.586 595.318 363.71C596.567 363.062 598.034 362.997 599.322 363.532ZM524.651 375.782C525.592 376.036 526.655 376.83 526.506 377.934C524.352 377.609 522.226 377.032 520.171 376.216C521.576 375.536 523.168 375.382 524.651 375.782ZM724.755 375.57C724.266 375.815 723.823 374.782 724.288 374.48C724.288 374.48 727.5 367.96 727.639 372.526C727.708 373.662 725.631 375.052 724.755 375.57ZM588.999 409.044C589.238 407.065 589.688 403.335 590.601 403.335C591.895 403.176 591.397 405.727 591.047 407.524C590.95 408.02 590.864 408.459 590.831 408.767C590.713 409.846 589.841 410.695 588.843 410.175C588.882 410.017 588.932 409.599 588.999 409.044ZM287.853 477.456C294.443 478.115 301.06 478.429 307.675 478.399C307.205 485.596 312.263 492.683 318.459 493.51C324.656 494.337 330.976 488.768 331.934 481.637C332.319 478.772 335.668 478.274 338.166 478.499L354.064 479.931C356.79 480.176 360.646 479.183 360.352 476.039L358.551 456.775C358.389 455.038 358.912 452.505 360.393 452.849C366.704 454.314 373.597 448.717 374.462 441.338C375.326 433.958 369.873 426.396 363.44 426.163C360.349 426.051 358.879 421.373 359.681 417.917C360.113 416.059 360.932 414.377 361.753 412.692L361.753 412.692L361.753 412.691C362.458 411.243 363.165 409.793 363.626 408.228C364.625 404.841 363.787 400.122 360.776 399.305C337.91 393.102 313.907 392.575 290.854 397.771L290.432 397.867C289.164 398.163 287.893 398.527 286.797 399.312C283.197 401.891 282.92 407.579 283.095 412.594L283.213 415.382C283.845 431.558 282.745 447.824 279.943 463.689L279.88 464.049C279.254 467.664 278.744 471.797 280.831 474.538C282.377 476.569 284.853 477.115 287.213 477.388L287.853 477.456ZM328.408 481.335C328.593 482.377 328.362 483.462 328 484.439L327.884 484.737C325.757 489.934 319.424 492.162 315.18 489.122C310.856 486.025 309.796 478.243 313.087 473.757C304.725 474.915 296.251 474.992 287.874 473.983C285.282 473.671 281.893 472.052 282.423 469.099C286.069 448.794 287.207 427.888 285.794 407.213C285.538 403.467 289.524 401.522 292.719 400.844C313.332 396.465 334.663 396.646 355.219 401.375C357.848 401.98 361.233 404.292 360.068 407.086C357.324 413.664 356.227 421.148 356.944 428.404C357.127 430.255 358.379 432.677 359.775 431.749C363.535 429.251 368.977 431.254 370.797 435.807C372.618 440.36 370.415 446.456 366.335 448.154C362.255 449.852 357.201 446.777 356.098 441.926C355.112 451.918 355.463 462.085 357.135 471.954C357.715 475.375 353.41 476.666 350.406 476.407L326.422 474.339C325.687 475.679 326.44 477.064 327.233 478.52C327.727 479.429 328.236 480.365 328.408 481.335ZM452.512 418.622L499.489 419.715L500.256 419.736C501.667 419.787 503.089 419.931 504.359 420.617C507.231 422.167 508.547 425.99 509.42 429.515C514.081 448.33 513.506 468.831 507.8 487.256L507.56 488.011C506.817 490.278 505.846 492.538 504.092 493.813C502.648 494.863 500.889 495.082 499.177 495.188L498.811 495.21C491.825 495.593 484.816 495.386 477.856 494.592C481.481 492.01 482.396 485.725 480.095 481.582C477.793 477.439 472.931 475.709 468.836 477.055C466.341 477.875 464.016 479.849 463.113 482.663C462.21 485.477 463.083 489.091 465.39 490.465C466.985 491.415 466.71 494.408 465.313 495.711C463.917 497.015 461.975 497.107 460.181 497.141L436.612 497.583C434.84 497.616 432.978 497.625 431.422 496.643C429.217 495.251 428.203 492.251 427.581 489.434C426.082 482.638 425.879 475.462 426.992 468.567C428.332 474.012 434.132 477.319 438.68 475.231C443.229 473.143 445.491 466.135 443.24 461.107C440.989 456.08 434.735 454.178 430.638 457.273L430.467 455.516C429.879 449.358 429.423 443.119 430.445 437.053C431.565 430.41 434.758 423.885 439.994 420.866C443.812 418.664 448.222 418.543 452.512 418.622ZM503.792 424.307C502.616 423.489 501.198 423.348 499.818 423.281L499.474 423.265C484.861 422.634 470.238 422.314 455.615 422.306L450.741 422.315C447.657 422.328 444.473 422.379 441.651 423.817C437.44 425.963 434.711 430.939 433.598 436.105C432.485 441.271 432.751 446.684 433.025 451.999C440.43 449.639 448.396 458.345 447.517 467.173C446.638 476.002 438.179 482.378 430.641 480.675C430.299 483.464 429.963 486.36 430.671 489.056C431.379 491.751 433.446 494.188 435.88 494.098L457.731 493.284C459.085 493.234 460.954 492.425 460.561 490.926C458.328 482.415 464.771 472.48 472.457 472.581C480.143 472.681 486.389 482.782 483.991 491.232C488.794 492.483 493.788 492.746 498.669 492.005C500.254 491.764 501.909 491.376 503.123 490.172C504.317 488.989 504.903 487.2 505.401 485.475C510.472 467.892 511.028 448.602 506.979 430.668C506.455 428.35 505.729 425.854 504.051 424.502L503.792 424.307ZM296.459 591.743C294.133 574.227 294.136 556.299 296.469 538.784L296.586 537.937C297.165 533.961 298.181 529.765 301.052 527.575C303.201 525.936 305.915 525.813 308.504 525.812L328.322 525.875C329.224 525.878 330.212 525.917 330.891 526.605C331.569 527.293 331.551 528.873 330.681 529.152C328.605 529.817 327.412 532.587 327.664 535.062C327.916 537.538 329.307 539.681 330.941 541.305C334.836 545.18 340.891 546.556 345.203 543.326C349.515 540.096 350.529 531.773 346.443 528.171C355.7 527.953 364.962 527.987 374.218 528.272L377.689 528.39C378.81 528.432 380.051 528.536 380.834 529.465C381.423 530.163 381.616 531.178 381.749 532.14C382.774 539.555 381.653 547.344 378.608 553.974C378.123 555.03 376.999 556.194 376.234 555.39C372.982 551.974 367.512 552.439 364.184 555.756C360.857 559.074 359.57 564.583 360.158 569.62C360.724 574.467 363.778 579.645 368 579.4C369.19 579.331 370.428 578.856 371.642 578.39C373.82 577.554 375.923 576.747 377.537 578.37L373.303 600.257C372.551 604.146 371.201 608.758 367.833 609.591C348.394 614.403 328.011 614.039 308.709 608.537L307.773 608.262C305.43 607.553 303.097 606.635 301.269 604.825C298.088 601.674 297.095 596.532 296.459 591.743ZM373.784 582.284C368.285 585.277 361.12 582.708 357.678 576.913C354.237 571.117 354.574 562.835 358.105 557.113C361.637 551.39 367.984 548.348 374.039 548.947L374.545 548.998C375.394 549.081 376.264 549.117 376.985 548.626C377.897 548.005 378.285 546.729 378.539 545.54C379.55 540.799 379.494 535.759 378.379 531.05L352.758 531.267C353.224 539.496 347.37 547.526 340.281 548.381C333.192 549.236 326.033 542.774 325.023 534.61L324.883 533.396C324.731 532.172 324.493 530.962 323.703 530.185C323.148 529.639 322.419 529.423 321.698 529.258L321.429 529.198C313.975 527.567 304.524 526.891 300.612 534.411C299.28 536.972 298.922 540.037 298.651 543.009C297.094 560.074 297.464 577.374 299.749 594.329L299.861 595.123C300.232 597.646 300.814 600.237 302.437 601.93C303.553 603.094 305.017 603.671 306.471 604.145L306.833 604.262C325.423 610.178 345.213 610.968 364.112 606.559L365.161 606.309C366.09 606.082 367.056 605.822 367.786 605.119C368.737 604.204 369.103 602.728 369.42 601.345L373.784 582.284ZM512.046 625.651C512.046 625.651 512.152 622.239 512.524 621.119C513.196 619.095 515.178 616.217 515.178 616.217C515.04 616.996 514.847 617.829 514.649 618.688L514.648 618.69C513.967 621.638 513.214 624.894 514.358 627.303C515.24 629.161 528.148 638.949 532.585 641.243C551.557 651.052 570.623 659.93 589.78 668.849C597.614 672.497 605.463 676.151 613.327 679.88C599.823 677.976 587.389 670.7 575.273 663.54C572.658 680.327 580.742 697.25 591.649 708.725C599.591 717.082 608.94 723.276 618.288 729.47C621.777 731.782 625.266 734.094 628.682 736.518L629.937 737.418C642.055 746.196 653.646 757.276 658.997 772.559C659.978 775.362 662.991 776.958 665.466 775.985C667.942 775.013 669.492 771.625 668.795 768.709C671.386 771.169 669.891 776.667 666.752 778.027C663.614 779.386 660.015 777.541 657.699 774.739C655.953 772.628 654.735 770.049 653.519 767.473C653.12 766.63 652.722 765.787 652.306 764.961C644.825 750.122 631.61 740.906 618.5 732.471L612.346 728.529C598.119 719.337 583.543 708.295 577.449 690.895C555.328 694.956 532.3 692.202 511.365 682.99C506.887 681.02 502.502 678.761 498.119 676.502L498.119 676.502C491.137 672.905 484.161 669.31 476.822 666.891C472.733 665.543 467.097 665.398 465.565 669.988C465.565 669.986 465.563 669.99 465.559 669.999C465.514 670.089 465.223 670.679 463.919 670.809C463.307 670.869 462.745 669.628 462.571 668.806C462.422 668.575 462.371 667.925 462.371 666.591C462.371 665.871 463.637 662.728 466.021 660.783C467.679 659.431 469.545 658.941 470.522 658.684C470.963 658.568 471.223 658.499 471.201 658.421C471.151 658.24 469.456 657.731 467.916 658.595C466.727 659.263 465.601 660.144 464.567 660.954C462.966 662.208 461.582 663.291 460.518 663.148C459.078 662.955 458.056 662.177 458.04 660.499C458.024 658.822 458.408 656.782 459.527 655.728C461.918 653.476 465.004 652.235 468.087 652.286C468.752 652.297 469.49 652.406 469.924 652.99C470.359 653.574 470.145 654.74 469.48 654.774C465.484 654.982 460.864 655.756 459.309 660.499C458.856 661.88 461.716 662.102 462.821 661.366C463.463 660.938 464.014 660.364 464.566 659.789C464.965 659.373 465.364 658.957 465.799 658.595C467.098 657.514 468.712 656.949 470.311 657.014C470.956 657.04 471.666 657.213 472.046 657.816C472.427 658.419 472.159 659.514 471.513 659.527C467.371 659.605 463.59 663.759 463.306 668.541C463.322 668.713 463.436 669.503 463.919 669.691C464.482 669.91 465.105 669.378 465.13 669.326C467.287 664.87 471.225 661.892 475.458 663.383C477.058 663.947 478.598 664.805 480.131 665.66C482.813 667.155 485.474 668.637 488.398 668.512L486.643 657.745C479.528 650.199 468.806 647.538 459.643 651.046C458.662 651.421 457.603 651.965 457.203 653.067C456.803 654.169 457.68 655.77 458.645 655.343C457.128 656.966 454.564 654.21 455.141 651.915C455.719 649.619 457.895 648.439 459.895 647.837C471.118 644.462 482.303 650.345 493.113 656.03L493.113 656.03C495.119 657.085 497.113 658.133 499.091 659.114C521.101 670.03 545.97 673.084 569.47 667.756C568.451 670.984 564.975 671.96 562.024 672.344C541.092 675.067 519.592 671.734 500.018 662.731C497.627 666.246 498.766 671.706 501.487 674.882C504.208 678.059 508.056 679.503 511.76 680.783C532.514 687.96 554.518 693.449 575.725 688.346L572.288 665.078L572.218 664.654C572.048 663.725 571.736 662.765 570.986 662.471L570.796 662.396C543.615 651.716 522.898 643.575 496 613.907C495.946 613.847 495.893 613.786 495.841 613.724C495.643 622.641 493.199 624.602 483.008 622.172C460.772 616.869 438.005 614.092 415.562 617.741C417.259 608.035 419.385 598.431 421.928 588.976C414.626 591.703 406.004 583.959 406.476 575.097C406.949 566.236 416.327 559.776 423.285 563.52C425.675 557.139 425.826 549.679 423.698 543.175C422.677 540.054 426.746 538.254 429.63 538.254L445.563 538.249C447.79 538.249 450.895 537.052 450.342 534.556C449.03 528.637 452.547 521.874 457.682 520.444C462.723 519.039 468.398 523.034 469.701 528.822L469.768 529.145C470.978 535.361 477.784 537.335 483.289 537.213L486.03 537.137C490.793 537.021 495.756 537.2 498.943 541.055C502.755 545.664 501.903 553.005 500.647 559.263L500.563 559.679C499.95 562.669 499.056 565.099 498.158 567.543C496.446 572.198 494.715 576.905 494.869 585.637C494.931 589.197 495.042 592.465 495.168 595.456C495.61 593.355 496 591.967 496 591.967C496 591.967 547.93 636.706 580.002 642.778C583.845 638.85 581.627 631.194 577.756 627.303C576.124 625.663 574.267 624.338 572.415 623.015C569.872 621.2 567.338 619.392 565.408 616.785C561.574 611.606 560.889 604.47 560.21 597.395C559.471 589.702 558.739 582.08 553.974 577.122C553.55 576.681 553.097 576.268 552.646 575.855L552.645 575.855L552.643 575.853C551.623 574.922 550.604 573.992 549.909 572.735C548.191 569.626 549.035 565.3 551.116 562.504C553.197 559.708 556.24 558.146 559.251 556.93C565.502 554.405 572.355 552.995 578.738 555.029C585.121 557.064 590.838 563.214 591.465 570.84C592.676 567.806 595.335 565.614 598.208 565.28L594.037 570.41L599.315 570.531L592.052 575.224C596.555 584.86 595.826 596.744 592.94 607.176C592.587 608.451 592.203 609.727 591.818 611.005L591.816 611.01L591.815 611.012C590.273 616.132 588.718 621.294 589.116 626.637C589.606 633.207 594.649 639.918 600.16 638.574L600.436 638.5C607.06 636.563 614.314 637.684 620.267 641.564C627.209 646.089 631.935 653.762 636.612 661.356L636.612 661.357C637.698 663.12 638.78 664.877 639.887 666.591C645.077 674.622 651.218 682.09 658.895 686.742C666.573 691.394 675.986 692.93 683.984 689.067C685.454 688.357 686.868 687.474 688.279 686.593C690.676 685.096 693.065 683.604 695.715 682.968C699.926 681.959 705.287 684.342 705.787 689.284C703.608 685.074 698.448 684.327 694.389 685.747C692.097 686.548 689.984 687.858 687.868 689.169C686.234 690.182 684.599 691.195 682.879 691.976C674.267 695.889 664.237 693.518 656.308 688C648.627 682.654 642.61 674.673 637.182 666.404L636.659 665.603C636.105 664.752 635.554 663.895 635.002 663.037L635.002 663.037C631.186 657.102 627.341 651.125 622.304 646.61C616.653 641.546 609.064 638.554 602.262 640.984L601.846 641.14C595.338 643.691 588.446 636.487 587.275 628.653C586.104 620.82 588.863 612.992 591.565 605.682C594.351 598.142 589.235 589.345 582.785 585.946C576.799 582.792 569.612 582.864 563.674 586.136C561.751 587.195 561.403 590.116 561.467 592.613L561.476 592.889C561.81 601.703 563.844 610.969 569.406 617.006C571.059 618.801 572.97 620.251 574.877 621.698C577.263 623.508 579.644 625.314 581.509 627.788C584.865 632.24 585.38 640.577 580.719 642.985C588.717 644.655 596.631 646.867 604.406 649.606C562.574 644.655 524.113 621.826 496.499 594.25C495.933 595.528 495.536 596.878 495.293 598.263C495.358 599.645 495.423 600.962 495.486 602.215C495.574 603.984 495.655 605.627 495.719 607.148C497.049 612.21 500.155 616.671 504.423 618.633C504.084 615.078 505.12 611.377 507.196 608.726C505.849 612.209 503.713 618.889 512.046 625.651ZM576.3 557.513C572.577 556.71 568.794 556.283 565.008 556.238C564.751 556.789 564.653 557.439 564.735 558.058C568.956 558.464 573.114 559.751 576.947 561.839C575.345 563.692 572.698 562.582 570.548 561.68L570.421 561.627C566.747 560.088 562.714 559.716 558.876 560.561C556.918 560.993 554.96 561.768 553.453 563.276C551.945 564.784 550.959 567.13 551.295 569.403C551.725 572.305 554.084 574.289 556.439 575.405C562.278 578.173 569.276 577.393 574.551 573.387C574.979 573.062 575.581 573.604 575.606 574.195C575.632 574.786 575.287 575.308 574.924 575.726C572.822 578.147 569.694 578.918 566.733 579.118C565.868 579.176 564.998 579.195 564.129 579.215C562.021 579.263 559.915 579.31 557.88 579.907C558.154 581.85 560.251 582.518 561.948 582.661C568.433 583.206 575.012 582.196 581.15 579.714C582.687 579.092 584.1 580.874 585.006 582.439L591.618 593.855C593.79 591.49 593.659 587.402 592.635 584.16C592.235 582.894 591.726 581.672 591.217 580.452L591.217 580.451C590.424 578.549 589.632 576.652 589.26 574.594C589.054 573.46 588.98 572.296 588.907 571.134V571.133C588.803 569.502 588.7 567.875 588.233 566.341C586.589 560.934 581.17 558.562 576.3 557.513ZM496.43 661.726L490.428 657.736C489.763 657.294 488.535 657.219 488.603 658.104C488.398 661.689 488.651 666.08 490.642 669.067C491.897 670.95 492.803 671.913 497.235 673.187L496.909 663.148C496.892 662.616 496.829 661.991 496.43 661.726ZM587.817 607.117C588.547 606.627 589.012 605.755 589.446 604.918C590.223 603.422 591.024 601.837 591.058 600.092C591.093 598.347 590.05 596.442 588.543 596.374C587.793 596.34 587.08 596.753 586.467 597.254C585.107 598.368 584.058 599.98 583.51 601.8C584.203 602.958 585.773 601.924 586.472 600.77C587.171 599.617 588.205 598.159 589.316 598.735C588.583 601.678 587.286 604.431 585.545 606.738C586.011 607.553 587.087 607.607 587.817 607.117ZM599.824 691.908C598.155 688.841 596.352 685.529 593.378 684.532C599.976 698.9 610.201 711.005 622.464 718.966C626.746 721.745 631.262 724.028 635.773 726.309L635.774 726.309C642.066 729.49 648.349 732.666 653.977 737.18C661.028 742.834 666.86 750.508 670.805 759.323C669.254 746.755 660.171 737.133 650.474 731.191C646.084 728.5 641.472 726.332 636.862 724.164C631.289 721.544 625.72 718.925 620.551 715.389C612.311 709.75 605.249 701.824 600.128 692.466C600.038 692.302 599.949 692.138 599.859 691.972L599.824 691.908ZM620.547 696.158L620.731 696.631C621.543 698.805 622.105 701.537 620.581 703.008C619.366 704.182 617.525 703.734 616.092 702.956C612.994 701.273 610.434 698.301 608.989 694.712C610.797 694.297 612.492 693.244 613.791 691.73C614.869 690.473 616.778 690.727 617.994 691.804C619.209 692.882 619.9 694.552 620.547 696.158ZM619.563 701.302C621.124 698.06 617.94 693.278 616.386 692.967C615.709 692.832 615.011 693.608 614.261 694.44C613.491 695.295 612.667 696.21 611.756 696.263C611.756 696.263 618.003 704.544 619.563 701.302ZM698.278 710.624C736.176 709.183 773.174 687.822 796.956 653.65C798.187 651.881 800.625 651.851 802.336 652.963C804.047 654.074 805.204 656.027 806.298 657.912C807.49 657.711 807.526 655.569 806.704 654.549C806.299 654.045 805.79 653.68 805.281 653.315L805.281 653.314C804.758 652.939 804.235 652.564 803.826 652.039C802.17 649.919 803.055 646.581 804.025 643.952L808.348 632.237C808.928 630.668 809.834 628.837 811.309 628.861C812.387 628.878 813.218 629.922 813.902 630.887C821.364 641.404 828.286 652.435 834.619 663.9C830.715 664.6 826.961 662.375 823.258 660.179C819.122 657.727 815.05 655.313 810.901 657.052C807.287 658.568 805.158 662.779 803.244 666.637C796.985 679.256 789.813 691.411 780.73 701.473C759.636 724.841 730.2 734.954 701.524 741.349C719.262 749.118 738.802 751.297 757.496 747.591C768.193 745.471 778.861 741.294 787.198 733.253C790.574 729.998 793.503 726.175 796.417 722.369L817.891 694.321C819.149 692.679 821.469 694.255 822.64 695.981C823.812 697.706 825.401 699.856 827.187 699.121C825.909 695.807 823.689 692.991 820.955 691.214C820.793 687.258 820.691 683.021 822.509 679.665C824.327 676.309 828.859 674.674 831.217 677.545C838.95 686.957 846.359 696.724 853.422 706.816C849.277 707.571 845.339 705.507 841.431 703.458C840.223 702.825 839.017 702.193 837.81 701.647C832.695 699.332 825.525 699.382 823.192 705.135C816.813 720.869 810.185 737.007 799.234 748.904C780.946 768.773 754.225 773.258 729.298 776.529C718.243 777.98 706.888 779.356 696.124 776.099C688.289 773.728 681.161 769.012 674.138 764.346L668.565 760.644C666.924 761.119 668.242 763.996 669.698 764.99C679.029 771.356 688.646 777.844 699.346 779.795C702.072 780.292 704.833 780.486 707.591 780.606C732.983 781.71 758.565 776.556 782.14 765.586C791.971 761.012 801.977 754.896 807.376 744.346L826.401 707.168C827.13 705.745 827.932 704.241 829.225 703.534C830.8 702.673 832.653 703.222 834.326 703.784L852.16 709.778C853.982 710.39 855.675 707.918 855.485 705.733C855.295 703.548 853.932 701.777 852.636 700.172L836.19 679.805C834.02 677.117 831.688 674.313 828.624 673.335C825.56 672.357 821.621 674.079 821.022 677.691C819.253 688.352 812.959 697.138 806.884 705.411C797.481 718.216 787.693 731.375 774.642 738.744C755.928 749.31 733.813 746.24 713.322 741.948L726.609 737.47C733.185 735.254 739.773 733.033 746.148 730.134C770.88 718.89 791.947 697.193 804.466 670.072C806.639 665.365 809.194 659.924 813.734 658.979C817.464 658.203 820.645 660.752 823.897 663.357C825.83 664.906 827.788 666.475 829.901 667.378C833.019 668.709 837.857 666.815 837.124 663.064C836.958 662.217 836.514 661.483 836.079 660.775L819.161 633.178C816.814 629.349 813.297 625.023 809.434 626.46C806.331 627.615 805.167 631.76 804.141 635.415L804.134 635.439C804.074 635.651 804.016 635.86 803.957 636.068C799.141 653.046 786.192 664.907 773.902 675.729C768.526 680.463 763.134 685.209 757.332 689.215C740.382 700.916 720.504 705.871 700.807 707.35C695.242 707.768 691.745 713.809 688.543 719.338L688.543 719.338L688.543 719.339L688.543 719.339C688.162 719.996 687.786 720.645 687.411 721.277C681.929 730.52 674.123 737.894 665.198 742.258C666.692 744.166 669.41 743.022 671.297 741.658C680.252 735.183 687.848 726.211 693.259 715.719C694.452 713.405 695.951 710.713 698.278 710.624ZM579.372 611.565C578.501 613.773 576.558 615.363 574.469 615.578C572.38 615.793 570.225 614.625 569.031 612.629C568.592 611.896 568.595 610.464 569.364 610.541C570.961 612.997 574.294 613.632 576.488 611.898C577.438 611.147 579.086 610.275 579.372 611.565ZM562.574 595.518C562.764 593.668 564.112 592.061 565.704 591.787C567.296 591.512 568.99 592.594 569.638 594.299C568.474 594.299 567.694 594.055 567.044 593.853C565.723 593.44 564.942 593.196 562.574 595.518ZM574.914 605.821L573.102 606.719L572.997 606.65C572.527 607.685 571.144 606.513 571.038 605.35C571.028 605.24 571.02 605.127 571.014 605.012C571.009 604.935 571.006 604.857 571.002 604.778C571 604.719 570.997 604.659 570.995 604.599C570.954 603.614 570.913 602.59 570.209 602.147C569.329 603.613 568.927 605.542 569.438 607.226C569.95 608.909 571.507 610.186 573.025 609.869C574.542 609.553 575.633 607.4 574.914 605.821ZM577.089 591.53C579.38 591.744 579.99 591.887 580.622 593.631C580.746 593.974 579.767 593.651 578.833 593.343C578.147 593.116 577.485 592.898 577.306 592.959C569.638 595.589 574.797 591.317 577.089 591.53ZM576.441 596.114C577.707 597.275 577.34 601.901 575.472 601.031C574.689 600.666 573.753 593.647 576.441 596.114ZM637.059 719.997C636.454 719.126 637.14 717.571 638.104 717.626C638.53 717.945 638.82 718.496 638.869 719.081C638.503 719.768 637.747 720.145 637.065 719.979L637.059 719.997ZM619.838 710.98L621.154 710.748L621.26 710.704C621.718 709.715 620.222 708.586 619.625 709.47C619.494 709.976 619.575 710.549 619.838 710.98ZM629.213 716.989C628.45 717.228 628.347 715.712 628.776 714.944L630.599 715.903C630.318 716.473 629.796 716.875 629.234 716.956L629.213 716.989ZM606.451 694.882C606.249 694.303 605.524 694.081 605.101 694.469L605.217 694.604C604.852 695.157 605.142 696.1 605.727 696.263C606.264 696.203 606.653 695.461 606.451 694.882ZM566.406 601.139C565.672 601.139 564.905 600.308 564.943 598.865C564.98 597.423 565.32 596.09 566.406 596.798C567.493 597.506 567.162 601.139 566.406 601.139ZM224.643 425.856C225.085 426.528 226.095 426.233 226.483 425.518C226.872 424.803 226.823 423.893 226.753 423.052C225.736 410.896 223.009 398.933 218.713 387.778C217.489 384.6 216.202 380.638 218.076 377.918C222.407 390.444 226.775 403.126 228.353 416.493C228.783 420.142 228.938 424.137 227.18 427.207C225.422 430.276 221.042 431.453 219.088 428.546C222.092 427.82 224.391 424.3 224.174 420.758C225.562 421.852 225.801 424.448 224.643 425.856ZM259.655 667.23C275.372 666.233 293.579 663.607 301.823 648.092C303.961 644.069 303.505 637.744 303.13 632.532C302.828 628.344 302.578 624.875 303.766 623.895C306.433 621.695 308.567 627.369 308.567 627.369C308.61 627.162 308.657 626.927 308.707 626.67C308.748 626.462 308.791 626.239 308.836 626.004C309.581 622.138 310.953 615.018 313.108 616.356C313.995 616.906 313.69 620.367 313.48 622.746C313.431 623.305 313.387 623.803 313.365 624.191C313.314 624.558 313.307 624.866 313.345 625.083C313.375 625.069 313.406 625.048 313.439 625.023C313.462 625.018 313.489 624.995 313.522 624.949C313.87 624.609 314.348 623.768 314.879 622.832C315.979 620.893 317.31 618.548 318.202 619.41C319.603 620.764 314.623 629.403 314.623 629.403C314.623 629.403 320.538 621.883 321.037 625.083C321.535 628.284 308.066 657.19 295.907 668.527C283.748 679.864 266.616 686.211 251.125 683.938C251.471 676.83 253.51 667.621 259.655 667.23ZM313.522 624.949C313.493 624.977 313.466 625.002 313.439 625.023C313.345 625.04 313.335 624.719 313.365 624.191C313.479 623.354 313.816 622.208 314.357 621.113C314.254 621.489 314.152 621.853 314.056 622.195C313.624 623.727 313.312 624.836 313.636 624.75C313.592 624.839 313.554 624.905 313.522 624.949ZM316.449 618.426C315.578 619.064 314.875 620.065 314.357 621.113C315.164 618.156 315.981 614.426 313.994 614.128C310.626 613.622 307.333 619.966 307.918 623.336C306.983 620.651 303.093 621.813 302.151 624.495C301.428 626.552 301.735 628.806 302.041 631.043C302.133 631.721 302.226 632.398 302.289 633.067C303.301 643.76 296.372 653.755 287.973 658.366C280.054 662.714 271.067 663.325 262.277 663.64L260.226 663.71C255.208 663.862 249.773 663.728 245.943 660.021C241.997 656.202 242.001 647.141 246.956 645.539C259.535 641.475 269.13 627.293 269.521 612.189C269.636 607.724 272.138 604.01 274.557 600.42C274.774 600.098 274.99 599.776 275.204 599.455L275.736 598.65C278.443 594.496 280.668 588.772 278.395 584.283C274.873 589.511 268.276 591.619 262.935 589.223C260.707 588.223 258.733 586.553 256.771 584.893C254.143 582.671 251.538 580.467 248.374 579.915C242.186 578.837 236.048 586.087 237.107 593.223C235.432 591.597 232.832 594.059 232.65 596.581C232.544 598.063 232.881 599.505 233.219 600.953L233.219 600.953C233.456 601.969 233.694 602.988 233.781 604.027C233.881 605.236 233.774 606.445 233.667 607.657L233.667 607.657C233.594 608.476 233.522 609.295 233.513 610.116C233.468 614.364 235.104 618.295 236.715 622.167L236.923 622.667C237.016 622.89 237.108 623.114 237.2 623.338L237.631 624.4C239.465 629.001 240.826 634.477 238.871 639.011C236.916 643.546 230.263 644.966 228.378 640.393C219.14 617.977 198.201 602.714 176.738 602.751C151.887 602.795 129.528 621.744 114.883 644.974C113.057 647.871 111.269 650.992 110.871 654.548C110.473 658.105 111.899 662.187 114.823 663.376C117.747 664.566 121.538 661.239 120.585 657.826C122.069 659.829 125.103 657.935 125.802 655.423C126.194 654.013 126.189 652.524 126.185 651.031C126.181 649.866 126.177 648.699 126.362 647.563C127.268 641.992 132.22 638.775 136.677 636.422L137.576 635.949C148.075 630.452 159.014 625.544 170.499 624.611C182.311 623.65 194.916 627.449 203.034 637.424C191.957 640.465 185.525 653.325 180.397 665.203L179.686 666.859C174.509 678.888 167.728 692.011 156.376 694.561C156.807 697.152 158.785 699.296 161.048 699.626L119.429 728.255L122.622 732.838C112.489 750.807 101.028 767.775 88.4058 783.494C81.5431 792.041 72.632 800.897 62.6973 798.907C60.9008 798.548 59.159 797.834 57.4233 797.123C54.8816 796.081 52.3529 795.045 49.6843 795.133C45.1933 795.282 40.6863 801.603 43.7348 805.422C50.4861 813.879 58.1916 821.315 66.594 827.482L66.8116 827.641C67.8344 828.378 68.9595 829.066 70.1455 828.909C71.3445 828.75 72.3207 827.763 73.2125 826.822L129.578 767.356C134.194 762.525 139.275 757.692 145.424 756.981L145.943 756.909C150.491 756.177 154.238 752.85 157.996 749.513C159.632 748.06 161.27 746.606 162.977 745.362C168.754 741.156 178.335 740.724 180.582 748.181C181.776 752.144 180.213 756.175 178.673 760.148C178.214 761.332 177.757 762.51 177.376 763.681C175.714 768.777 177.076 776.618 181.783 776.521L208.125 775.982C209.072 775.971 210.069 776.033 210.805 776.702C211.575 777.403 211.845 778.57 211.993 779.714L212.055 780.239C213.047 789.574 212.91 799.069 211.649 808.361C210.283 818.431 206.649 829.507 198.437 833.199C193.258 835.527 187.489 834.319 182.034 832.873L148.888 823.915C148.832 819.27 152.464 815.489 156.335 814.258C159.617 813.215 163.065 813.533 166.479 813.848L166.505 813.851L166.533 813.853C166.725 813.871 166.916 813.888 167.108 813.906L168.312 814.01C176.7 814.677 185.181 813.775 193.324 811.35L181.574 777.327C182.772 788.622 185.412 799.711 189.383 810.122L150.756 811.573C147.393 811.681 143.659 811.509 141.398 808.669C140.817 807.94 140.333 807.042 139.854 806.154C138.87 804.328 137.903 802.536 136.156 802.302C134.645 802.1 133.277 803.267 132.12 804.409C124.569 811.862 118.298 821.047 113.781 831.273C115.409 835.939 120.806 837.245 124.998 835.905C127.451 835.122 129.689 833.711 131.932 832.297L131.932 832.296L131.933 832.296C133.523 831.293 135.116 830.289 136.789 829.506C146.127 825.139 156.392 828.099 166.252 831.534L172.109 833.598C183.684 837.621 197.797 839.684 206.47 829.946C211.589 824.2 213.453 815.65 214.467 807.482C217.391 783.912 215.021 759.489 207.65 737.258C215.868 733.589 219.746 722.953 222.761 713.377L228.665 694.623C230.637 688.358 235.119 680.669 240.453 683.194C255.702 690.41 273.714 687.359 287.911 677.687C302.108 668.015 312.736 652.347 319.894 635.177L320.086 634.714C321.486 631.302 323.272 623.341 321.677 622.459C321.083 621.919 320.024 622.816 319.302 623.427C318.911 623.757 318.62 624.004 318.554 623.895C318.513 623.829 318.644 623.388 318.829 622.763C319.558 620.305 321.132 614.999 316.449 618.426ZM215.538 723.698C213.693 728.497 210.64 734.146 206.134 733.508C203.722 733.167 201.899 731.06 200.26 728.894L199.381 727.717C189.858 714.927 176.922 706.425 163.919 698.6L159.587 696.011C170.179 693.6 176.712 681.48 181.378 670.217L182.864 666.628C187.131 656.395 191.985 645.866 200.784 641.259C202 640.622 203.395 640.115 204.65 640.644C204.84 640.724 205.045 640.815 205.258 640.91C206.807 641.599 208.801 642.486 208.77 640.789C205.946 639.472 205.482 634.707 207.11 631.731C208.597 629.014 211.173 627.446 213.723 626.095L214.45 625.715C212.823 623.119 209.298 625.301 207.456 627.697L207.304 627.892C205.455 630.238 202.618 632.807 200.484 630.9C191.668 623.018 179.918 620.488 168.828 621.725C157.738 622.963 147.157 627.654 137.025 633.018C133.312 634.984 129.54 637.128 126.785 640.614C124.653 643.311 124.432 646.902 124.21 650.511L124.21 650.511L124.21 650.512C124.145 651.568 124.08 652.625 123.967 653.663C123.693 656.172 122.5 656.268 121.45 656.352C120.886 656.397 120.364 656.439 120.046 656.848C120.02 656.881 119.938 657.027 119.814 657.247C119.183 658.368 117.476 661.401 116.705 661.099C115.573 660.655 116.151 657.826 116.151 657.826C116.151 657.826 112.79 658.938 112.54 657.826C111.665 653.938 116.705 645.981 116.705 645.981C125.18 631.556 137.748 619.586 151.565 612.628C165.638 605.542 182.06 604.173 196.447 610.36C212.666 617.335 225.509 633.998 229.65 653.437C230.682 658.283 235.554 660.423 239.811 661.228C240.064 661.276 240.319 661.323 240.575 661.37L241.026 661.451C244.955 662.161 249.132 662.917 251.637 666.388C252.375 667.411 252.171 668.925 251.917 670.225L251.843 670.6C250.909 675.236 249.28 680.424 245.387 681.831C241.849 683.109 237.656 679.809 237.386 675.531C237.362 675.155 237.355 674.756 237.348 674.352C237.318 672.69 237.287 670.939 236.08 670.253L215.538 723.698ZM182.078 749.05C180.755 741.184 176.734 734.107 171.458 728.916C171.664 732.008 172.794 735.007 174.613 737.286C165.672 740.574 157.24 745.708 149.835 752.372C147.852 754.155 144.485 755.782 143.324 753.206C138.757 743.07 131.486 734.594 122.761 729.232L158.631 705.382C160.252 704.304 161.966 703.195 163.836 703.174C165.286 703.158 166.662 703.8 167.973 704.548L168.623 704.928C182.046 712.927 194.061 724.073 203.729 737.492C206.123 740.814 207.238 745.069 208.186 749.277L212.452 768.564C212.735 769.841 212.942 771.423 212.077 772.281C211.59 772.764 210.905 772.847 210.266 772.904L209.518 772.971C198.896 773.917 190.327 774.68 179.686 772.904C178.098 769.382 179.298 765.017 180.537 760.509C181.599 756.647 182.689 752.681 182.078 749.05ZM128.716 737.191C132.696 741.246 136.284 745.816 139.392 750.788C139.725 751.32 140.067 751.914 140.031 752.569C139.99 753.334 139.455 753.922 138.957 754.426L92.5959 801.375C90.6628 803.333 87.5791 802.99 85.4138 801.391C83.5191 799.991 82.1645 797.845 80.9215 795.658L80.3944 794.72C92.4768 787.373 100.227 774.212 108.047 760.934C112.951 752.605 117.883 744.23 123.928 737.215C124.516 736.533 125.179 735.827 126.005 735.72C127.028 735.587 127.944 736.404 128.716 737.191ZM263.725 606.232L264.908 606.653C267.213 607.478 267.596 611.051 267.303 613.823C266.088 625.296 259.924 636.653 250.421 640.218L250.081 640.351C243.888 642.88 239.461 650.376 239.725 657.98C235.568 658.881 231.112 655.033 230.675 650.166C230.588 649.196 230.836 647.935 231.669 647.787C235.446 647.116 238.92 644.434 240.905 640.657C242.891 636.879 243.351 632.077 242.129 627.888C241.88 627.033 241.563 626.176 241.245 625.318L241.245 625.318C240.342 622.879 239.435 620.431 240.07 617.971C241.517 618.126 241.791 620.422 241.639 622.095L241.622 622.298C241.505 623.947 241.757 626.062 243.139 626.283C244.05 623.862 244.24 621.151 244.428 618.461C244.665 615.064 244.9 611.701 246.584 608.994C248.508 605.9 251.961 604.478 255.255 604.434C258.138 604.394 260.956 605.261 263.725 606.232ZM55.4202 799.681L55.7175 799.284C57.3767 798.864 58.9611 801.323 58.1394 803.043C57.6122 804.146 59.2335 805.239 60.1388 804.536C61.044 803.834 61.2266 802.409 61.3262 801.153C62.2369 800.823 63.0248 802.03 63.1967 803.116C63.2421 803.403 63.2703 803.7 63.2986 803.997C63.3771 804.825 63.4558 805.654 63.9069 806.276C64.5202 807.122 66.1449 806.685 65.8784 805.624C65.4809 804.042 67.0958 802.751 68.5053 802.518C68.8431 802.462 69.1919 802.429 69.5417 802.396L69.5433 802.396L69.5448 802.395C70.6532 802.29 71.7705 802.184 72.5774 801.351L72.699 801.239C73.7229 800.398 74.9907 801.953 75.7635 803.333L76.123 804.003C77.8223 807.059 80.7108 809.2 83.8248 809.689C84.435 809.785 84.1246 810.886 83.6763 811.374L73.1665 822.826C72.6571 823.381 71.8315 822.986 71.2347 822.563C64.9963 818.144 59.2372 812.819 54.1352 806.754C52.5278 804.843 53.891 801.795 55.4202 799.681ZM147.329 820.996C147.026 822.44 146.165 824.056 144.884 823.947C141.797 823.683 138.666 824.114 135.719 825.208C135.989 823.753 135.439 822.14 134.384 821.291C133.614 822.565 133.929 824.541 135.041 825.413L132.103 828.773L130.696 825.032C130.002 825.246 129.982 826.231 130.03 827.134L130.064 827.694C130.205 830.062 128.469 832.364 126.423 832.524C124.376 832.684 122.389 830.672 122.253 828.304C122.106 825.724 123.814 823.56 125.401 821.741L136.674 808.824C136.914 808.561 137.189 808.315 137.512 808.322C137.87 808.329 138.16 808.643 138.412 808.937L142.811 814.074C143.664 815.07 143.125 816.594 142.599 818.079C142.059 819.608 141.532 821.095 142.554 821.924C143.548 821.992 144.376 820.993 144.758 819.929C144.953 819.386 145.072 818.813 145.19 818.24L145.19 818.24C145.304 817.689 145.418 817.139 145.6 816.615C145.97 815.545 146.77 814.527 147.766 814.551C148.762 814.575 149.531 816.222 148.761 816.953C147.939 817.733 147.705 819 147.477 820.232C147.429 820.49 147.382 820.746 147.329 820.996ZM70.2514 826.707C60.1186 820.435 51.1618 811.635 44.1707 801.083C45.0874 800.077 46.466 801.145 47.3527 802.285L47.5722 802.582C54.2149 812.093 62.5573 820.008 71.9196 825.681C71.8437 826.536 70.9066 827.112 70.2514 826.707ZM118.847 824.305C123.236 817.663 128.1 811.441 133.371 805.722C134.188 804.835 135.886 804.237 136.092 805.511C129.955 812.289 124.086 819.392 118.507 826.788C117.901 826.18 118.359 825.043 118.847 824.305ZM85.1372 807.699C82.0743 806.438 79.3437 804.118 77.3874 801.114C76.6513 799.983 76.187 798.02 77.3023 797.438C78.1838 796.979 79.0307 797.943 79.6455 798.879L80.1065 799.604C82.0878 802.629 84.9136 804.904 88.0566 805.992C88.0622 806.962 87.368 807.871 86.5352 807.985C86.0609 808.049 85.5871 807.884 85.1372 807.699ZM235.442 611.141C236.882 611.181 238.101 612.918 237.839 614.557L237.873 614.58C238.072 615.768 237.941 617.027 237.504 618.126C235.929 616.34 235.141 613.669 235.442 611.141ZM262.873 611.182C263.055 611.164 263.246 611.144 263.44 611.142C263.683 611.138 263.963 611.188 264.227 611.236H264.228H264.228C264.94 611.363 265.537 611.47 264.974 610.45C264.201 609.051 261.941 608.893 261.571 610.497C261.674 611.305 262.213 611.25 262.873 611.182ZM264.693 618.1L264.693 618.098L264.694 618.096L264.714 618.007L264.725 617.956C265.275 615.547 264.957 613.647 263.44 613.647C262.855 613.698 261.962 617.146 262.047 618.191C262.132 619.236 263.151 620.203 263.939 619.684C264.407 619.377 264.557 618.708 264.693 618.1ZM254.69 617.369C253.633 615.67 253.522 613.251 254.418 611.432C254.551 611.161 254.713 610.894 254.947 610.738C255.54 610.345 256.334 610.878 256.595 611.609C256.857 612.34 256.742 613.169 256.624 613.948C256.624 613.948 255.747 619.068 254.69 617.369ZM478.636 617.418C459.324 611.938 439.149 610.551 419.412 613.353C422.837 604.119 424.341 593.939 423.76 583.912C418.617 588.083 410.173 583.19 409.979 575.927C409.784 568.664 417.949 563.175 423.306 566.968C424.726 567.974 426.287 565.889 426.855 564.078C428.789 557.909 428.807 550.963 426.907 544.781C426.167 542.373 429.307 541.067 431.516 541.117L450.258 541.546C451.516 541.575 452.852 541.581 453.927 540.823C455.002 540.065 455.613 538.241 454.823 537.107C451.58 532.451 455.307 524.118 460.465 524.493C465.624 524.867 468.421 533.675 464.699 537.825C464.005 538.599 465.354 539.595 466.318 539.621L490.824 540.274C495.698 540.404 499.142 546.411 499.341 552.048C499.509 556.817 498.045 561.385 496.599 565.897C496.473 566.291 496.347 566.683 496.223 567.076L495.823 568.352C491.482 582.444 490.085 597.737 491.784 612.567C492.115 615.46 489.813 618.034 487.349 618.661C485.175 619.213 482.937 618.665 480.761 618.035L478.636 617.418Z" fill="#00160A"/>
<path fill-rule="evenodd" clip-rule="evenodd" d="M217.428 357.888C217.607 356.552 219.146 355.78 220.259 356.239C221.371 356.697 222.365 358.543 221.549 359.588C220.259 361.241 217.082 360.482 217.428 357.888Z" fill="#FFB61D"/>
<path fill-rule="evenodd" clip-rule="evenodd" d="M701.71 703.978C700.983 704.685 699.524 704.94 699.388 703.852C702.227 700.511 704.18 696.175 704.921 691.569C705.847 691.282 706.115 692.989 705.883 694.066C705.1 697.695 704.186 701.573 701.71 703.978Z" fill="#00160A"/>
<path d="M75.0789 305.869C75.0501 306.946 73.6379 306.883 72.7839 306.453C73.0913 305.492 74.3375 305.171 74.9688 305.89L75.0789 305.869Z" fill="black"/>
<path fill-rule="evenodd" clip-rule="evenodd" d="M478.06 601.796C477.076 602.809 475.421 601.26 475.567 599.746C475.713 598.231 476.873 597.148 477.985 596.332C481.972 593.409 486.59 591.648 491.297 591.255C491.424 593.332 489.097 594.19 487.33 594.588C483.583 595.434 480.012 597.312 476.998 600.025C477.543 600.411 477.938 601.07 478.06 601.796V601.796Z" fill="#00160A"/>
<path fill-rule="evenodd" clip-rule="evenodd" d="M491.431 604.446C489.222 605.679 486.974 606.818 484.693 607.862C484.952 608.975 486.335 608.938 487.272 608.547C488.21 608.155 489.443 607.744 490.051 608.658C488.508 611.381 484.687 611.806 482.725 609.472C481.872 608.457 480.327 609.125 479.226 608.509C477.649 607.628 477.943 604.874 478.871 603.156C480.809 599.569 484.505 597.358 488.154 597.6C489.544 597.692 491.204 598.486 491.297 600.093C486.938 599.776 482.494 601.856 479.551 605.59C481.223 607.087 483.621 605.97 485.507 604.864C487.392 603.758 489.882 602.782 491.431 604.446Z" fill="#00160A"/>
<path fill-rule="evenodd" clip-rule="evenodd" d="M259.394 618.752C260.646 620.2 261.165 620.863 261.165 622.993C261.165 625.124 260.166 626.491 258.481 627.116C257.704 627.405 256.628 627.184 256.426 626.269C262.042 624.942 259.978 622.108 259.394 618.752Z" fill="#00160A"/>
<path fill-rule="evenodd" clip-rule="evenodd" d="M251.901 609.689C252.5 607.39 255.107 606.148 256.931 607.291C257.653 607.744 258.254 608.567 258.291 609.516C256.161 609.574 254.407 607.981 251.901 609.689Z" fill="#00160A"/>
<path fill-rule="evenodd" clip-rule="evenodd" d="M257 630.224C245.12 622.592 254.421 632.371 257 630.224V630.224Z" fill="#00160A"/>
</svg>
